<svg id="svg" version="1.1" xmlns="http://www.w3.org/2000/svg" xmlns:xlink="http://www.w3.org/1999/xlink" width="400" height="143.4375" viewBox="0, 0, 400,143.4375"><g id="svgg"><path id="path0" d="M170.947 36.442 C 170.884 36.505,170.833 52.518,170.833 72.028 L 170.833 107.500 179.750 107.500 L 188.667 107.500 188.667 96.583 L 188.667 85.667 198.583 85.667 C 204.037 85.667,208.500 85.603,208.500 85.525 C 208.500 85.447,209.190 85.334,210.034 85.274 C 210.878 85.214,211.643 85.091,211.734 84.999 C 211.825 84.908,212.106 84.833,212.357 84.833 C 212.608 84.833,212.860 84.758,212.917 84.667 C 212.973 84.575,213.203 84.500,213.427 84.500 C 213.650 84.500,213.833 84.425,213.833 84.333 C 213.833 84.242,213.951 84.167,214.094 84.167 C 214.411 84.167,216.561 83.153,216.639 82.967 C 216.669 82.893,216.833 82.833,217.002 82.833 C 217.171 82.833,217.409 82.740,217.530 82.625 C 217.651 82.510,217.956 82.310,218.208 82.180 C 218.460 82.050,218.667 81.881,218.667 81.805 C 218.667 81.729,218.749 81.667,218.850 81.667 C 218.951 81.667,219.243 81.442,219.500 81.167 C 219.757 80.892,220.041 80.667,220.132 80.667 C 220.534 80.667,223.833 77.069,223.833 76.631 C 223.833 76.508,223.983 76.299,224.167 76.167 C 224.350 76.035,224.500 75.810,224.500 75.667 C 224.500 75.524,224.650 75.299,224.833 75.167 C 225.017 75.035,225.167 74.830,225.167 74.713 C 225.167 74.596,225.242 74.500,225.333 74.500 C 225.425 74.500,225.500 74.350,225.500 74.167 C 225.500 73.983,225.575 73.833,225.667 73.833 C 225.758 73.833,225.833 73.729,225.833 73.602 C 225.833 73.475,225.945 73.157,226.082 72.894 C 226.219 72.631,226.332 72.248,226.332 72.042 C 226.333 71.835,226.408 71.667,226.500 71.667 C 226.592 71.667,226.667 71.517,226.667 71.333 C 226.667 71.150,226.742 71.000,226.833 71.000 C 226.925 71.000,227.000 70.817,227.000 70.593 C 227.000 70.369,227.075 70.140,227.167 70.083 C 227.258 70.027,227.333 69.764,227.333 69.500 C 227.333 69.236,227.408 68.973,227.500 68.917 C 227.592 68.860,227.667 68.556,227.667 68.240 C 227.667 67.925,227.742 67.667,227.833 67.667 C 227.925 67.667,228.000 67.292,228.000 66.833 C 228.000 66.375,228.070 66.000,228.155 66.000 C 228.505 66.000,228.650 59.987,228.357 57.583 C 228.257 56.758,228.128 55.708,228.071 55.250 C 228.014 54.792,227.900 54.345,227.817 54.258 C 227.734 54.171,227.667 53.853,227.667 53.550 C 227.667 53.248,227.592 53.000,227.500 53.000 C 227.408 53.000,227.333 52.775,227.333 52.500 C 227.333 52.225,227.258 52.000,227.167 52.000 C 227.075 52.000,227.000 51.817,227.000 51.593 C 227.000 51.369,226.925 51.140,226.833 51.083 C 226.742 51.027,226.667 50.797,226.667 50.573 C 226.667 50.350,226.592 50.167,226.500 50.167 C 226.408 50.167,226.333 50.055,226.333 49.918 C 226.333 49.570,225.782 48.333,225.627 48.333 C 225.557 48.333,225.500 48.183,225.500 48.000 C 225.500 47.817,225.425 47.667,225.333 47.667 C 225.242 47.667,225.167 47.533,225.167 47.370 C 225.167 47.207,225.017 46.965,224.833 46.833 C 224.650 46.701,224.500 46.509,224.500 46.406 C 224.500 46.303,224.350 46.083,224.167 45.917 C 223.983 45.751,223.833 45.518,223.833 45.398 C 223.833 45.279,223.646 44.994,223.417 44.765 C 223.188 44.536,223.000 44.304,223.000 44.250 C 223.000 44.080,220.189 41.333,220.015 41.333 C 219.923 41.333,219.661 41.146,219.432 40.917 C 219.203 40.688,218.971 40.500,218.917 40.500 C 218.863 40.500,218.658 40.350,218.462 40.167 C 218.265 39.983,218.005 39.833,217.885 39.833 C 217.765 39.833,217.667 39.758,217.667 39.667 C 217.667 39.575,217.517 39.500,217.333 39.500 C 217.150 39.500,217.000 39.439,217.000 39.364 C 217.000 39.178,215.897 38.667,215.494 38.667 C 215.314 38.667,215.167 38.592,215.167 38.500 C 215.167 38.408,215.017 38.333,214.833 38.333 C 214.650 38.333,214.500 38.258,214.500 38.167 C 214.500 38.075,214.313 38.000,214.083 38.000 C 213.854 38.000,213.667 37.925,213.667 37.833 C 213.667 37.742,213.442 37.667,213.167 37.667 C 212.892 37.667,212.667 37.592,212.667 37.500 C 212.667 37.408,212.457 37.333,212.200 37.333 C 211.943 37.333,211.662 37.266,211.575 37.184 C 211.488 37.101,211.079 36.986,210.667 36.928 C 210.254 36.870,209.354 36.740,208.667 36.641 C 207.272 36.439,171.140 36.249,170.947 36.442 M254.946 36.443 C 254.884 36.505,254.833 52.518,254.833 72.028 L 254.833 107.500 280.583 107.500 L 306.333 107.500 306.333 99.917 L 306.333 92.333 289.500 92.333 L 272.668 92.333 272.625 64.375 L 272.583 36.417 263.821 36.374 C 259.002 36.350,255.008 36.381,254.946 36.443 M334.944 36.444 C 334.883 36.506,334.833 52.518,334.833 72.028 L 334.833 107.500 343.750 107.500 L 352.667 107.500 352.667 87.417 C 352.667 74.139,352.723 67.333,352.833 67.333 C 352.925 67.333,353.000 67.429,353.000 67.547 C 353.000 67.664,353.150 67.868,353.333 68.000 C 353.517 68.132,353.667 68.374,353.667 68.537 C 353.667 68.700,353.723 68.835,353.792 68.837 C 353.860 68.838,354.138 69.213,354.409 69.670 C 354.680 70.126,354.962 70.500,355.034 70.500 C 355.107 70.500,355.167 70.596,355.167 70.713 C 355.167 70.830,355.317 71.035,355.500 71.167 C 355.683 71.299,355.833 71.524,355.833 71.667 C 355.833 71.810,355.983 72.035,356.167 72.167 C 356.350 72.299,356.500 72.498,356.500 72.608 C 356.500 72.719,356.601 72.910,356.724 73.033 C 356.847 73.156,357.040 73.430,357.153 73.642 C 357.387 74.079,357.747 74.547,358.292 75.120 C 358.498 75.337,358.667 75.590,358.667 75.681 C 358.667 75.773,358.742 75.938,358.834 76.049 C 358.926 76.159,359.276 76.662,359.611 77.167 C 359.947 77.671,360.284 78.108,360.361 78.139 C 360.437 78.169,360.500 78.282,360.500 78.389 C 360.501 78.496,360.726 78.846,361.001 79.167 C 361.276 79.487,361.544 79.881,361.595 80.042 C 361.647 80.202,361.759 80.333,361.845 80.333 C 361.930 80.333,362.000 80.456,362.000 80.605 C 362.000 80.755,362.132 80.999,362.293 81.147 C 362.454 81.295,362.692 81.623,362.821 81.875 C 362.950 82.127,363.119 82.333,363.195 82.333 C 363.271 82.333,363.333 82.418,363.333 82.522 C 363.333 82.626,363.465 82.832,363.625 82.980 C 363.785 83.129,364.060 83.531,364.235 83.875 C 364.409 84.219,364.616 84.500,364.693 84.500 C 364.770 84.500,364.833 84.612,364.833 84.749 C 364.833 84.885,364.983 85.091,365.167 85.205 C 365.350 85.320,365.500 85.529,365.500 85.670 C 365.500 85.811,365.650 86.035,365.833 86.167 C 366.017 86.299,366.167 86.540,366.167 86.703 C 366.167 86.867,366.225 87.000,366.297 87.000 C 366.369 87.000,366.572 87.244,366.747 87.542 C 366.923 87.840,367.202 88.229,367.367 88.406 C 367.532 88.584,367.667 88.811,367.667 88.911 C 367.667 89.011,367.817 89.201,368.000 89.333 C 368.183 89.465,368.333 89.669,368.333 89.785 C 368.333 89.902,368.483 90.091,368.667 90.205 C 368.850 90.320,369.000 90.540,369.000 90.695 C 369.000 90.850,369.101 91.077,369.224 91.200 C 369.347 91.323,369.540 91.597,369.653 91.808 C 369.851 92.177,369.951 92.310,370.791 93.306 C 370.998 93.550,371.166 93.844,371.166 93.958 C 371.167 94.073,371.225 94.167,371.295 94.167 C 371.366 94.167,371.566 94.429,371.738 94.750 C 371.911 95.071,372.116 95.333,372.193 95.333 C 372.270 95.333,372.333 95.432,372.333 95.552 C 372.333 95.672,372.465 95.916,372.625 96.094 C 372.785 96.271,373.023 96.623,373.153 96.875 C 373.283 97.127,373.452 97.333,373.528 97.333 C 373.604 97.333,373.667 97.414,373.667 97.512 C 373.667 97.610,373.760 97.795,373.875 97.923 C 374.248 98.338,374.413 98.576,374.653 99.042 C 374.783 99.294,374.952 99.500,375.028 99.500 C 375.104 99.500,375.167 99.596,375.167 99.713 C 375.167 99.830,375.317 100.035,375.500 100.167 C 375.683 100.299,375.833 100.524,375.833 100.667 C 375.833 100.810,375.983 101.035,376.167 101.167 C 376.350 101.299,376.500 101.497,376.500 101.607 C 376.500 101.718,376.688 102.031,376.917 102.303 C 377.146 102.575,377.333 102.864,377.333 102.946 C 377.333 103.027,377.483 103.201,377.667 103.333 C 377.850 103.465,378.000 103.690,378.000 103.833 C 378.000 103.976,378.150 104.201,378.333 104.333 C 378.517 104.465,378.667 104.670,378.667 104.787 C 378.667 104.904,378.733 105.000,378.813 105.000 C 378.894 105.000,379.055 105.231,379.173 105.514 C 379.290 105.797,379.470 106.116,379.573 106.223 C 379.676 106.329,379.932 106.660,380.142 106.958 L 380.523 107.500 390.178 107.500 L 399.833 107.500 399.833 71.915 L 399.833 36.330 390.958 36.374 L 382.083 36.417 382.000 57.393 C 381.912 79.443,381.910 79.512,381.258 77.375 C 381.196 77.169,381.074 77.000,380.989 77.000 C 380.903 77.000,380.832 76.906,380.830 76.792 C 380.828 76.600,380.522 76.181,379.542 75.025 C 379.336 74.782,379.167 74.490,379.167 74.375 C 379.167 74.260,379.109 74.167,379.038 74.167 C 378.967 74.167,378.768 73.904,378.595 73.583 C 378.422 73.262,378.218 73.000,378.140 73.000 C 378.063 73.000,378.000 72.902,378.000 72.781 C 378.000 72.661,377.850 72.402,377.667 72.205 C 377.483 72.008,377.333 71.788,377.333 71.715 C 377.333 71.643,377.107 71.321,376.832 71.000 C 376.557 70.679,376.290 70.285,376.238 70.125 C 376.186 69.965,376.074 69.833,375.989 69.833 C 375.903 69.833,375.833 69.735,375.833 69.615 C 375.833 69.495,375.683 69.235,375.500 69.038 C 375.317 68.842,375.167 68.619,375.167 68.544 C 375.167 68.468,375.017 68.299,374.833 68.167 C 374.650 68.035,374.500 67.849,374.500 67.755 C 374.500 67.661,374.312 67.365,374.083 67.099 C 373.854 66.833,373.667 66.515,373.667 66.392 C 373.667 66.270,373.517 66.076,373.333 65.961 C 373.150 65.847,373.000 65.649,373.000 65.521 C 373.000 65.394,372.868 65.168,372.707 65.020 C 372.546 64.871,372.308 64.544,372.179 64.292 C 372.050 64.040,371.881 63.833,371.805 63.833 C 371.729 63.833,371.667 63.721,371.667 63.583 C 371.667 63.446,371.610 63.332,371.542 63.330 C 371.473 63.328,371.195 62.953,370.924 62.497 C 370.653 62.040,370.372 61.667,370.299 61.667 C 370.226 61.667,370.167 61.555,370.167 61.418 C 370.167 61.281,370.017 61.076,369.833 60.961 C 369.650 60.847,369.500 60.649,369.500 60.521 C 369.500 60.394,369.369 60.168,369.208 60.020 C 369.048 59.871,368.772 59.466,368.595 59.119 C 368.419 58.772,368.062 58.266,367.804 57.995 C 367.545 57.725,367.333 57.406,367.333 57.288 C 367.333 57.170,367.183 56.965,367.000 56.833 C 366.817 56.701,366.667 56.497,366.667 56.380 C 366.667 56.263,366.603 56.167,366.525 56.167 C 366.448 56.167,366.249 55.867,366.083 55.500 C 365.918 55.133,365.737 54.833,365.681 54.833 C 365.625 54.833,365.393 54.533,365.167 54.167 C 364.940 53.800,364.697 53.500,364.627 53.500 C 364.557 53.500,364.500 53.404,364.500 53.287 C 364.500 53.170,364.350 52.965,364.167 52.833 C 363.983 52.701,363.833 52.492,363.833 52.369 C 363.833 52.152,363.226 51.259,362.625 50.594 C 362.465 50.416,362.333 50.189,362.333 50.089 C 362.333 49.989,362.183 49.799,362.000 49.667 C 361.817 49.535,361.667 49.293,361.667 49.130 C 361.667 48.967,361.603 48.833,361.526 48.833 C 361.449 48.833,361.244 48.571,361.072 48.250 C 360.899 47.929,360.705 47.667,360.640 47.667 C 360.575 47.667,360.474 47.514,360.415 47.328 C 360.356 47.142,360.126 46.808,359.904 46.586 C 359.682 46.363,359.500 46.120,359.500 46.044 C 359.500 45.969,359.350 45.799,359.167 45.667 C 358.983 45.535,358.833 45.298,358.833 45.142 C 358.833 44.985,358.740 44.757,358.625 44.635 C 358.510 44.512,358.156 44.038,357.838 43.581 C 357.520 43.124,357.126 42.605,356.963 42.427 C 356.800 42.249,356.667 42.005,356.667 41.885 C 356.667 41.765,356.609 41.667,356.538 41.667 C 356.467 41.667,356.268 41.404,356.095 41.083 C 355.922 40.762,355.718 40.500,355.640 40.500 C 355.563 40.500,355.500 40.402,355.500 40.281 C 355.500 40.161,355.350 39.902,355.167 39.705 C 354.983 39.508,354.833 39.303,354.833 39.249 C 354.833 39.196,354.638 38.956,354.399 38.717 C 354.161 38.479,353.891 38.070,353.800 37.808 C 353.709 37.547,353.566 37.333,353.484 37.333 C 353.401 37.333,353.333 37.232,353.333 37.109 C 353.333 36.338,353.282 36.333,343.890 36.333 C 339.031 36.333,335.006 36.383,334.944 36.444 M40.583 48.498 C 39.196 48.630,38.328 48.791,36.500 49.255 C 35.904 49.407,35.209 49.570,34.956 49.618 C 34.703 49.666,34.455 49.771,34.405 49.853 C 34.355 49.934,34.167 50.000,33.988 50.000 C 33.809 50.000,33.532 50.066,33.373 50.147 C 33.214 50.228,32.896 50.369,32.667 50.461 C 32.438 50.553,31.575 50.955,30.750 51.356 L 29.250 52.083 29.206 56.790 L 29.161 61.497 29.789 61.143 C 31.018 60.450,32.531 59.726,34.000 59.130 C 34.229 59.037,34.547 58.895,34.706 58.814 C 34.865 58.733,35.110 58.667,35.250 58.667 C 35.390 58.667,35.635 58.601,35.794 58.520 C 38.830 56.987,44.643 57.109,48.125 58.780 C 49.631 59.502,50.000 59.560,50.000 59.074 C 50.000 58.848,50.351 57.698,51.827 53.093 C 52.624 50.609,52.776 50.912,50.167 49.791 C 47.600 48.688,43.874 48.185,40.583 48.498 M69.917 48.496 C 67.900 48.698,68.306 48.199,66.309 52.917 C 65.766 54.200,65.252 55.400,65.167 55.583 C 64.451 57.125,63.501 59.416,63.538 59.511 C 63.563 59.576,64.033 59.423,64.583 59.171 C 69.806 56.782,75.612 56.875,80.901 59.433 C 81.462 59.704,81.887 59.729,82.294 59.514 C 82.803 59.245,83.751 58.852,85.775 58.071 C 86.861 57.651,88.013 57.194,88.333 57.054 C 88.654 56.914,89.067 56.740,89.250 56.667 C 89.433 56.594,89.846 56.421,90.167 56.282 C 90.487 56.144,91.451 55.762,92.307 55.433 C 93.163 55.104,94.138 54.714,94.474 54.567 C 94.809 54.420,95.233 54.240,95.417 54.167 C 95.600 54.094,96.037 53.907,96.389 53.753 C 97.327 53.339,97.320 53.392,96.020 56.686 C 94.694 60.042,94.710 59.956,95.510 59.495 C 99.484 57.207,103.618 56.855,108.250 58.409 C 110.283 59.092,113.436 60.772,113.872 61.406 C 113.940 61.503,113.994 59.408,113.992 56.750 L 113.989 51.917 113.203 51.434 C 109.565 49.202,106.724 48.450,101.917 48.447 C 97.934 48.444,96.666 48.777,93.667 50.611 C 90.425 52.594,86.104 52.558,81.417 50.510 C 77.648 48.863,73.503 48.137,69.917 48.496 M201.833 51.833 C 201.833 51.930,202.358 52.000,203.073 52.000 C 203.756 52.000,204.360 52.075,204.417 52.167 C 204.473 52.258,204.740 52.333,205.010 52.333 C 205.279 52.333,205.500 52.408,205.500 52.500 C 205.500 52.592,205.650 52.667,205.833 52.667 C 206.017 52.667,206.167 52.742,206.167 52.833 C 206.167 52.925,206.285 53.000,206.429 53.000 C 206.676 53.000,209.000 55.166,209.000 55.396 C 209.000 55.454,209.188 55.890,209.417 56.365 C 209.646 56.840,209.833 57.361,209.833 57.521 C 209.833 57.682,209.908 57.860,210.000 57.917 C 210.092 57.973,210.167 58.386,210.167 58.833 C 210.167 59.281,210.242 59.693,210.333 59.750 C 210.425 59.807,210.500 60.369,210.500 61.000 C 210.500 61.631,210.425 62.193,210.333 62.250 C 210.242 62.307,210.167 62.719,210.167 63.167 C 210.167 63.614,210.092 64.027,210.000 64.083 C 209.908 64.140,209.833 64.407,209.833 64.677 C 209.833 64.946,209.758 65.167,209.667 65.167 C 209.575 65.167,209.498 65.298,209.495 65.458 C 209.492 65.619,209.379 65.896,209.245 66.074 C 209.110 66.251,209.000 66.502,209.000 66.630 C 209.000 66.900,207.319 68.558,206.634 68.962 C 206.377 69.114,206.167 69.297,206.167 69.369 C 206.167 69.441,206.017 69.500,205.833 69.500 C 205.650 69.500,205.500 69.575,205.500 69.667 C 205.500 69.758,205.275 69.833,205.000 69.833 C 204.725 69.833,204.500 69.908,204.500 70.000 C 204.500 70.092,204.162 70.167,203.750 70.167 C 203.338 70.167,203.000 70.242,203.000 70.333 C 203.000 70.442,200.500 70.500,195.833 70.500 L 188.667 70.500 188.667 61.083 L 188.667 51.667 195.250 51.667 C 199.528 51.667,201.833 51.725,201.833 51.833 M40.500 70.910 C 38.048 71.182,34.374 72.082,33.294 72.675 C 33.135 72.762,32.923 72.833,32.823 72.833 C 32.724 72.833,31.860 73.204,30.904 73.657 L 29.167 74.481 29.167 79.152 C 29.167 84.417,29.034 84.016,30.500 83.171 C 33.707 81.322,37.915 80.052,41.494 79.855 L 43.405 79.750 43.679 78.917 C 43.830 78.458,44.275 77.071,44.669 75.833 C 45.063 74.596,45.561 73.038,45.776 72.371 C 45.991 71.705,46.167 71.130,46.167 71.094 C 46.167 71.058,45.585 70.981,44.875 70.923 C 44.165 70.865,43.321 70.790,43.000 70.757 C 42.679 70.724,41.554 70.793,40.500 70.910 M99.833 70.852 C 97.704 71.055,96.036 71.617,94.060 72.797 C 92.233 73.888,91.592 74.143,90.000 74.409 L 88.917 74.591 87.445 78.254 C 85.706 82.580,85.671 82.666,85.481 83.039 C 85.227 83.538,85.306 83.604,86.394 83.805 C 89.448 84.367,92.190 83.822,95.373 82.020 C 97.964 80.552,98.638 80.285,100.500 79.988 C 104.258 79.389,109.781 80.814,113.208 83.266 L 114.000 83.833 113.998 79.125 L 113.996 74.417 113.123 73.820 C 110.836 72.259,107.632 71.183,104.500 70.926 C 101.903 70.713,101.375 70.705,99.833 70.852 M77.083 74.333 C 76.124 74.787,74.742 75.400,73.542 75.901 C 72.556 76.314,72.055 76.536,69.791 77.562 C 69.263 77.801,68.363 78.193,67.791 78.432 C 66.619 78.923,65.744 79.309,64.167 80.033 C 63.571 80.306,62.633 80.718,62.083 80.949 C 61.533 81.179,60.765 81.510,60.375 81.684 C 58.314 82.603,57.168 83.108,56.208 83.517 C 55.411 83.857,55.544 84.000,56.654 84.000 C 58.708 84.000,60.872 83.361,64.167 81.782 C 67.623 80.126,72.717 79.412,76.029 80.119 C 76.982 80.323,77.088 80.260,77.223 79.417 C 77.326 78.776,77.521 77.767,77.851 76.167 C 78.331 73.837,78.298 73.757,77.083 74.333 M40.500 93.254 C 40.362 93.281,39.688 93.393,39.000 93.502 C 36.130 93.957,33.426 94.840,30.208 96.372 L 29.167 96.868 29.167 101.517 C 29.167 106.226,29.209 106.547,29.758 106.013 C 30.418 105.371,35.285 103.348,37.333 102.864 C 39.252 102.411,39.704 102.338,41.177 102.237 C 44.166 102.034,45.917 102.466,49.467 104.282 C 54.988 107.106,58.102 107.091,64.083 104.211 C 66.480 103.057,69.245 102.334,71.258 102.333 C 72.529 102.333,72.833 102.177,72.833 101.528 C 72.833 101.305,72.906 100.851,72.994 100.519 C 73.411 98.955,74.359 93.640,74.265 93.395 C 73.887 92.411,66.949 93.534,62.500 95.299 C 57.343 97.346,56.028 97.365,52.000 95.457 C 48.828 93.955,48.413 93.814,46.000 93.424 C 44.643 93.205,41.283 93.101,40.500 93.254 M98.560 93.413 C 96.667 93.756,95.257 94.328,93.840 95.325 C 91.025 97.307,87.198 97.377,82.082 95.541 L 80.746 95.062 79.610 97.906 C 78.272 101.255,78.277 101.242,77.934 102.025 C 77.561 102.874,77.579 102.919,78.375 103.170 C 78.765 103.293,80.079 103.868,81.296 104.447 C 82.514 105.026,83.605 105.500,83.721 105.500 C 83.838 105.500,84.005 105.561,84.092 105.636 C 84.925 106.354,90.510 106.550,92.250 105.923 C 93.365 105.521,94.054 105.183,95.833 104.162 C 99.440 102.094,103.101 101.737,107.583 103.014 C 109.496 103.559,112.954 105.258,113.506 105.924 C 113.948 106.456,114.000 105.993,114.000 101.529 C 114.000 96.212,114.154 96.731,112.250 95.640 C 108.683 93.595,102.816 92.640,98.560 93.413 " stroke="none" fill="#2cace3" fill-rule="evenodd"></path><path id="path1" d="M61.926 21.375 C 61.598 22.406,61.172 23.775,60.979 24.417 C 60.785 25.058,60.569 25.733,60.497 25.917 C 60.426 26.100,60.091 27.150,59.752 28.250 C 59.413 29.350,59.002 30.662,58.839 31.167 C 58.675 31.671,58.298 32.871,58.001 33.833 C 57.704 34.796,57.201 36.408,56.883 37.417 C 56.564 38.425,56.225 39.512,56.129 39.833 C 56.033 40.154,55.897 40.567,55.827 40.750 C 55.758 40.933,55.424 41.983,55.085 43.083 C 54.747 44.183,54.337 45.496,54.175 46.000 C 54.012 46.504,53.711 47.479,53.506 48.167 C 53.301 48.854,53.065 49.547,52.983 49.706 C 52.901 49.865,52.833 50.131,52.833 50.298 C 52.833 50.464,52.770 50.671,52.693 50.758 C 52.616 50.845,52.274 51.817,51.932 52.917 C 50.341 58.041,49.978 59.217,49.415 61.083 C 48.544 63.968,48.467 64.214,48.328 64.583 C 48.258 64.767,47.884 65.929,47.495 67.167 C 47.107 68.404,46.472 70.392,46.085 71.583 C 45.200 74.306,43.845 78.590,43.660 79.250 C 43.527 79.725,42.948 81.623,41.577 86.083 C 41.238 87.183,40.906 88.233,40.837 88.417 C 40.627 88.979,40.333 89.934,40.333 90.053 C 40.333 90.280,40.831 90.155,42.110 89.606 C 43.312 89.090,43.892 88.834,45.750 88.000 C 46.541 87.646,47.311 87.308,48.334 86.867 C 48.746 86.690,49.458 86.377,49.917 86.172 C 50.375 85.968,50.900 85.736,51.083 85.657 C 51.267 85.578,52.186 85.173,53.126 84.757 C 54.066 84.340,54.870 84.000,54.913 84.000 C 54.955 84.000,55.386 83.820,55.870 83.600 C 56.354 83.380,57.218 83.005,57.791 82.765 C 58.363 82.526,59.263 82.134,59.791 81.895 C 60.318 81.656,60.975 81.363,61.250 81.244 C 61.810 81.002,66.140 79.105,66.917 78.762 C 67.358 78.566,68.411 78.101,71.000 76.960 C 71.412 76.778,72.050 76.496,72.417 76.334 C 75.174 75.114,78.158 73.833,78.245 73.833 C 78.353 73.833,78.267 74.492,77.973 75.917 C 77.599 77.729,77.521 78.117,77.350 79.000 C 77.253 79.504,76.981 80.967,76.745 82.250 C 76.509 83.533,76.252 84.883,76.172 85.250 C 76.092 85.617,75.940 86.367,75.833 86.917 C 75.727 87.467,75.577 88.217,75.500 88.583 C 75.423 88.950,75.273 89.700,75.167 90.250 C 74.954 91.348,74.807 92.033,74.434 93.667 C 74.298 94.263,73.959 95.950,73.681 97.417 C 73.403 98.883,73.099 100.421,73.006 100.833 C 72.913 101.246,72.728 102.221,72.594 103.000 C 72.461 103.779,72.049 105.954,71.678 107.833 C 70.794 112.323,70.667 112.958,70.496 113.750 C 70.416 114.117,70.319 114.604,70.280 114.833 C 70.220 115.179,69.475 118.934,68.660 123.000 C 68.559 123.504,68.407 124.188,68.322 124.519 C 68.236 124.851,68.172 125.338,68.178 125.603 L 68.189 126.083 68.373 125.667 C 68.474 125.438,68.664 124.987,68.795 124.667 C 68.927 124.346,69.111 123.896,69.206 123.667 C 69.301 123.438,69.433 123.100,69.500 122.917 C 69.567 122.733,69.707 122.377,69.811 122.125 C 70.109 121.403,70.269 120.998,70.753 119.750 C 71.441 117.976,71.449 117.957,71.717 117.333 C 71.855 117.013,72.915 114.350,74.073 111.417 C 75.230 108.483,76.250 105.915,76.339 105.708 C 76.600 105.101,76.869 104.441,77.001 104.083 C 77.069 103.900,77.293 103.375,77.500 102.917 C 77.707 102.458,77.933 101.933,78.004 101.750 C 78.075 101.567,78.242 101.154,78.376 100.833 C 78.729 99.988,80.546 95.297,81.088 93.833 C 81.342 93.146,81.679 92.283,81.837 91.917 C 81.996 91.550,82.477 90.350,82.908 89.250 C 83.339 88.150,83.761 87.081,83.846 86.875 C 83.931 86.669,84.065 86.331,84.144 86.125 C 84.435 85.370,84.632 84.899,85.000 84.083 C 85.207 83.625,85.433 83.100,85.504 82.917 C 85.575 82.733,85.743 82.321,85.878 82.000 C 86.014 81.679,86.780 79.729,87.581 77.667 C 89.077 73.817,89.214 73.465,89.500 72.750 C 89.774 72.065,89.933 71.660,90.579 70.000 C 91.418 67.841,91.430 67.811,91.644 67.292 C 91.820 66.865,91.934 66.584,92.316 65.625 C 92.399 65.419,92.579 64.987,92.718 64.667 C 92.856 64.346,93.232 63.400,93.553 62.564 C 93.874 61.728,94.320 60.641,94.544 60.147 C 95.345 58.382,97.052 53.830,96.951 53.728 C 96.832 53.610,96.176 53.855,93.775 54.912 C 93.469 55.048,92.520 55.424,91.667 55.750 C 90.814 56.076,89.846 56.460,89.516 56.605 C 89.186 56.749,88.748 56.935,88.542 57.017 C 87.509 57.429,87.305 57.512,86.958 57.661 C 86.752 57.750,85.796 58.131,84.833 58.508 C 83.078 59.196,82.559 59.413,81.167 60.038 C 80.754 60.224,80.267 60.436,80.083 60.511 C 77.489 61.561,73.055 63.345,71.753 63.861 C 70.839 64.224,69.826 64.636,69.503 64.777 C 69.181 64.918,68.767 65.094,68.583 65.168 C 68.400 65.242,66.369 66.059,64.070 66.984 C 61.770 67.910,59.797 68.667,59.683 68.667 C 59.398 68.667,59.714 67.828,61.694 63.333 C 61.795 63.104,61.939 62.767,62.014 62.583 C 62.089 62.400,62.520 61.425,62.971 60.417 C 63.423 59.408,64.035 58.021,64.332 57.333 C 64.629 56.646,65.006 55.783,65.169 55.417 C 65.332 55.050,65.669 54.262,65.917 53.667 C 66.165 53.071,66.518 52.246,66.702 51.833 C 66.885 51.421,67.140 50.840,67.268 50.542 C 67.395 50.244,67.615 49.739,67.756 49.420 C 67.897 49.101,68.119 48.537,68.250 48.167 C 68.477 47.524,68.664 47.078,69.333 45.583 C 69.646 44.885,69.791 44.548,70.661 42.500 C 71.185 41.267,71.311 40.977,71.962 39.500 C 72.145 39.087,72.611 38.000,72.999 37.083 C 73.388 36.167,73.839 35.117,74.002 34.750 C 74.165 34.383,74.411 33.821,74.548 33.500 C 74.686 33.179,74.948 32.579,75.132 32.167 C 75.315 31.754,75.668 30.929,75.915 30.333 C 76.163 29.738,76.470 29.006,76.599 28.708 C 76.728 28.410,76.938 27.923,77.065 27.625 C 77.193 27.327,77.493 26.650,77.732 26.120 C 77.971 25.590,78.167 25.124,78.167 25.083 C 78.167 25.042,78.363 24.576,78.603 24.046 C 78.844 23.517,79.135 22.858,79.252 22.583 C 79.369 22.308,79.649 21.671,79.876 21.167 C 80.102 20.662,80.340 20.081,80.405 19.875 L 80.522 19.500 71.522 19.500 L 62.522 19.500 61.926 21.375 " stroke="none" fill="#e32d2c" fill-rule="evenodd"></path><path id="path2" d="M0.167 71.667 L 0.167 143.167 71.647 143.167 L 143.128 143.167 143.228 142.792 C 143.418 142.082,143.347 0.500,143.157 0.500 C 143.060 0.500,143.027 0.425,143.083 0.333 C 143.152 0.222,119.307 0.167,71.677 0.167 L 0.167 0.167 0.167 71.667 M80.667 19.717 C 80.667 19.928,80.605 20.171,80.530 20.258 C 80.455 20.345,80.179 20.942,79.918 21.583 C 79.656 22.225,79.259 23.162,79.036 23.667 C 78.813 24.171,78.535 24.808,78.419 25.083 C 78.302 25.358,78.010 26.017,77.770 26.546 C 77.530 27.076,77.333 27.542,77.333 27.583 C 77.333 27.624,77.138 28.090,76.899 28.620 C 76.660 29.150,76.360 29.827,76.232 30.125 C 76.104 30.423,75.895 30.910,75.766 31.208 C 75.637 31.506,75.331 32.237,75.085 32.833 C 74.840 33.429,74.450 34.329,74.218 34.833 C 73.987 35.337,73.739 35.900,73.666 36.083 C 73.593 36.267,73.376 36.772,73.183 37.207 C 72.991 37.641,72.833 38.029,72.833 38.069 C 72.833 38.109,72.568 38.729,72.243 39.446 C 71.918 40.163,71.589 40.900,71.510 41.083 C 71.432 41.267,71.247 41.698,71.100 42.042 C 70.953 42.385,70.727 42.910,70.596 43.208 C 70.466 43.506,70.119 44.313,69.827 45.000 C 69.534 45.688,69.116 46.646,68.897 47.130 C 68.293 48.467,68.398 48.518,71.055 48.176 C 72.569 47.981,75.304 48.311,77.667 48.975 C 78.762 49.283,80.855 50.012,81.583 50.340 C 81.767 50.423,82.629 50.708,83.500 50.974 C 88.084 52.373,90.959 52.181,93.795 50.288 C 98.721 46.999,107.829 47.489,113.434 51.345 L 114.167 51.849 114.167 56.647 C 114.167 59.286,114.120 61.491,114.063 61.548 C 114.006 61.605,113.528 61.359,113.001 61.001 C 111.454 59.950,108.350 58.500,107.648 58.500 C 107.486 58.500,107.312 58.433,107.261 58.351 C 107.074 58.049,102.834 57.634,101.167 57.755 C 99.297 57.891,97.859 58.392,95.583 59.700 C 94.718 60.198,94.682 60.249,94.025 61.962 C 93.718 62.762,93.369 63.642,93.249 63.917 C 93.129 64.192,92.762 65.117,92.433 65.974 C 92.104 66.830,91.714 67.805,91.567 68.140 C 91.225 68.920,91.143 69.124,90.492 70.833 C 89.907 72.368,89.566 73.205,89.288 73.791 C 88.816 74.788,91.598 74.106,93.842 72.674 C 98.985 69.393,108.012 69.900,113.491 73.777 L 114.160 74.250 114.163 79.125 C 114.165 82.259,114.107 84.000,114.000 84.000 C 113.909 84.000,113.469 83.737,113.022 83.417 C 112.576 83.096,112.132 82.833,112.036 82.833 C 111.940 82.833,111.836 82.773,111.806 82.700 C 111.734 82.527,109.448 81.441,108.583 81.169 C 108.217 81.053,107.786 80.893,107.627 80.813 C 107.468 80.732,107.116 80.667,106.845 80.667 C 106.575 80.667,106.313 80.602,106.264 80.523 C 105.946 80.009,99.386 80.010,99.069 80.524 C 99.020 80.602,98.834 80.667,98.655 80.667 C 98.316 80.667,94.948 82.363,94.667 82.676 C 93.759 83.684,89.264 84.373,86.027 84.000 L 85.304 83.917 84.736 85.333 C 84.424 86.112,84.093 86.919,84.001 87.125 C 83.768 87.645,83.612 88.038,82.992 89.667 C 82.695 90.446,82.343 91.346,82.209 91.667 C 81.769 92.722,81.624 93.079,81.478 93.458 C 81.398 93.665,81.247 94.018,81.142 94.244 C 80.917 94.725,81.174 95.167,81.677 95.167 C 81.844 95.167,82.027 95.242,82.083 95.333 C 82.140 95.425,82.333 95.500,82.512 95.500 C 82.691 95.500,82.968 95.566,83.127 95.646 C 86.086 97.141,91.051 96.917,93.667 95.171 C 94.801 94.414,96.302 93.667,96.690 93.667 C 96.849 93.667,97.021 93.602,97.070 93.522 C 97.245 93.238,98.798 93.106,102.000 93.103 C 104.999 93.099,105.654 93.160,107.833 93.647 C 109.378 93.992,111.990 95.041,112.139 95.375 C 112.169 95.444,112.282 95.502,112.389 95.504 C 112.496 95.506,112.940 95.770,113.375 96.089 L 114.167 96.670 114.167 101.474 C 114.167 104.116,114.120 106.325,114.062 106.382 C 114.005 106.440,113.499 106.164,112.937 105.771 C 111.054 104.449,108.017 103.219,105.417 102.724 C 103.945 102.444,99.749 102.606,98.750 102.981 C 98.233 103.176,95.760 104.386,95.667 104.491 C 95.621 104.542,95.358 104.696,95.083 104.833 C 94.808 104.971,94.546 105.121,94.500 105.167 C 94.410 105.258,93.726 105.579,93.125 105.813 C 92.919 105.893,92.525 106.055,92.250 106.173 C 91.945 106.304,90.723 106.417,89.115 106.464 C 85.607 106.566,84.999 106.427,81.250 104.666 C 79.021 103.619,77.689 103.078,77.608 103.186 C 77.581 103.221,77.422 103.625,77.255 104.083 C 77.088 104.542,76.805 105.254,76.626 105.667 C 76.252 106.527,76.289 106.436,75.256 109.083 C 74.826 110.183,74.396 111.271,74.299 111.500 C 74.202 111.729,74.057 112.085,73.978 112.292 C 73.898 112.498,73.768 112.835,73.689 113.042 C 73.436 113.700,73.216 114.238,73.028 114.667 C 72.927 114.896,72.535 115.871,72.158 116.833 C 71.781 117.796,71.373 118.808,71.252 119.083 C 71.130 119.358,70.716 120.408,70.332 121.417 C 69.948 122.425,69.521 123.513,69.383 123.833 C 69.245 124.154,69.075 124.567,69.005 124.750 C 68.788 125.319,68.468 126.070,68.314 126.373 C 68.233 126.532,68.167 126.744,68.167 126.843 C 68.167 127.043,67.685 127.576,67.593 127.478 C 67.561 127.444,67.678 126.704,67.854 125.833 C 68.029 124.962,68.249 123.875,68.342 123.417 C 68.435 122.958,68.555 122.226,68.610 121.788 C 68.665 121.351,68.775 120.953,68.855 120.903 C 68.935 120.854,69.000 120.485,69.000 120.083 C 69.000 119.682,69.075 119.307,69.167 119.250 C 69.258 119.193,69.333 118.916,69.333 118.635 C 69.333 118.353,69.403 117.851,69.488 117.519 C 69.573 117.188,69.725 116.504,69.825 116.000 C 69.925 115.496,70.241 113.921,70.526 112.500 C 70.811 111.079,71.107 109.579,71.184 109.167 C 71.324 108.410,71.534 107.329,71.825 105.875 C 71.912 105.440,72.055 104.708,72.143 104.250 C 72.231 103.792,72.358 103.202,72.424 102.940 L 72.545 102.464 71.148 102.555 C 69.349 102.673,68.219 102.890,66.417 103.465 C 65.942 103.616,65.627 103.753,63.250 104.841 C 61.141 105.806,60.715 105.969,59.557 106.249 C 56.459 106.999,53.294 106.495,49.856 104.706 C 47.728 103.598,45.920 102.833,45.427 102.833 C 45.229 102.833,44.988 102.755,44.892 102.658 C 44.673 102.440,39.777 102.548,38.583 102.798 C 36.915 103.147,33.563 104.229,33.258 104.517 C 33.171 104.599,32.965 104.667,32.800 104.667 C 32.635 104.667,32.500 104.742,32.500 104.833 C 32.500 104.925,32.392 105.000,32.260 105.000 C 32.030 105.000,30.437 105.811,29.755 106.276 C 29.001 106.789,29.000 106.782,29.000 101.625 L 29.001 96.750 29.875 96.316 C 30.858 95.829,32.207 95.209,32.833 94.957 C 33.063 94.864,33.400 94.727,33.583 94.651 C 34.161 94.413,36.710 93.714,37.708 93.520 C 38.235 93.417,39.060 93.252,39.542 93.153 C 42.863 92.466,48.041 93.279,51.750 95.070 C 54.591 96.441,55.261 96.655,56.726 96.663 C 57.733 96.668,59.424 96.263,60.958 95.650 C 61.165 95.567,61.502 95.432,61.708 95.350 C 61.915 95.267,62.496 95.048,63.000 94.862 C 65.910 93.793,65.931 93.787,68.250 93.305 C 68.708 93.210,70.255 93.097,71.687 93.055 C 74.557 92.970,74.667 92.921,74.667 91.720 C 74.667 91.483,74.741 91.017,74.832 90.686 C 75.079 89.787,76.268 83.683,76.442 82.417 C 76.493 82.050,76.601 81.679,76.684 81.592 C 76.997 81.260,76.852 80.510,76.458 80.430 C 74.205 79.974,68.703 80.037,68.403 80.523 C 68.354 80.602,68.149 80.667,67.948 80.667 C 67.627 80.667,66.541 81.023,64.923 81.658 C 64.651 81.765,63.826 82.141,63.090 82.495 C 60.510 83.732,58.612 84.200,56.366 84.152 C 55.437 84.132,54.867 84.208,54.404 84.413 C 53.268 84.914,52.450 85.284,51.302 85.817 C 50.689 86.101,50.151 86.333,50.106 86.333 C 50.061 86.333,49.438 86.599,48.721 86.924 C 48.003 87.248,47.267 87.578,47.083 87.657 C 46.900 87.736,46.248 88.033,45.636 88.317 C 45.023 88.601,44.484 88.833,44.439 88.833 C 44.394 88.833,43.771 89.099,43.054 89.424 C 42.337 89.748,41.563 90.094,41.333 90.193 C 41.104 90.292,40.777 90.445,40.605 90.533 C 39.881 90.907,40.200 88.957,41.332 86.083 C 41.405 85.900,41.590 85.337,41.743 84.833 C 41.897 84.329,42.280 83.074,42.595 82.044 C 42.909 81.013,43.167 80.125,43.167 80.069 C 43.167 79.849,38.345 80.273,38.092 80.515 C 38.005 80.599,37.785 80.667,37.603 80.667 C 37.254 80.667,36.791 80.803,34.917 81.458 C 33.116 82.087,30.959 83.070,30.083 83.661 C 28.970 84.411,29.000 84.537,29.000 79.162 L 29.000 74.324 30.375 73.680 C 33.123 72.392,34.513 71.875,36.482 71.410 C 37.088 71.268,37.733 71.112,37.917 71.065 C 39.602 70.634,43.984 70.431,45.428 70.718 L 46.107 70.853 46.320 70.135 C 46.437 69.740,46.600 69.286,46.683 69.127 C 46.766 68.968,46.833 68.723,46.833 68.583 C 46.833 68.443,46.899 68.199,46.980 68.039 C 47.060 67.880,47.203 67.487,47.297 67.167 C 47.927 65.027,48.719 62.538,48.848 62.294 C 48.931 62.135,49.000 61.858,49.000 61.679 C 49.000 61.500,49.066 61.312,49.147 61.262 C 49.229 61.212,49.330 60.964,49.374 60.710 C 49.417 60.457,49.503 60.133,49.565 59.991 C 49.652 59.790,49.365 59.589,48.297 59.101 C 47.538 58.755,46.786 58.403,46.627 58.319 C 46.468 58.235,46.191 58.167,46.012 58.167 C 45.833 58.167,45.647 58.102,45.598 58.024 C 45.205 57.387,38.876 57.609,37.083 58.322 C 36.900 58.395,36.112 58.663,35.333 58.918 C 33.421 59.544,32.019 60.169,29.948 61.320 C 28.992 61.851,29.000 61.889,29.000 56.688 L 29.000 51.896 30.674 51.104 C 33.963 49.550,36.987 48.697,40.703 48.274 C 42.692 48.049,45.459 48.159,46.595 48.509 C 46.877 48.596,47.303 48.667,47.544 48.667 C 47.784 48.667,48.027 48.742,48.083 48.833 C 48.140 48.925,48.322 49.000,48.487 49.000 C 48.778 49.000,50.465 49.651,51.733 50.253 C 52.491 50.613,52.534 50.571,52.998 49.000 C 53.201 48.313,53.426 47.600,53.498 47.417 C 53.570 47.233,53.720 46.746,53.831 46.333 C 53.942 45.921,54.100 45.453,54.183 45.294 C 54.266 45.135,54.333 44.890,54.333 44.750 C 54.333 44.610,54.399 44.365,54.480 44.206 C 54.560 44.047,54.703 43.654,54.797 43.333 C 55.197 41.976,56.211 38.724,56.331 38.417 C 56.402 38.233,56.628 37.521,56.834 36.833 C 57.039 36.146,57.267 35.396,57.341 35.167 C 57.415 34.938,57.750 33.850,58.086 32.750 C 58.421 31.650,58.764 30.620,58.848 30.461 C 58.931 30.301,59.000 30.057,59.000 29.917 C 59.000 29.777,59.069 29.532,59.152 29.373 C 59.303 29.087,60.287 25.957,60.685 24.500 C 60.797 24.087,60.952 23.679,61.028 23.592 C 61.104 23.505,61.167 23.265,61.167 23.060 C 61.167 22.854,61.242 22.640,61.333 22.583 C 61.425 22.527,61.500 22.264,61.500 22.000 C 61.500 21.736,61.575 21.473,61.667 21.417 C 61.758 21.360,61.833 21.135,61.833 20.917 C 61.833 20.698,61.908 20.473,62.000 20.417 C 62.092 20.360,62.167 20.143,62.167 19.935 C 62.167 19.323,62.005 19.333,71.528 19.333 L 80.667 19.333 80.667 19.717 M70.250 57.839 C 68.712 57.991,67.889 58.133,67.417 58.326 C 67.233 58.401,66.783 58.552,66.417 58.663 C 66.050 58.773,65.196 59.138,64.519 59.473 L 63.288 60.083 62.643 61.667 C 62.288 62.538,61.839 63.587,61.644 64.000 C 61.450 64.412,61.216 64.938,61.123 65.167 C 60.867 65.803,60.715 66.164,60.256 67.229 C 59.768 68.358,59.916 68.784,60.592 68.195 C 60.679 68.120,61.837 67.625,63.167 67.097 C 64.496 66.568,65.771 66.058,66.000 65.962 C 66.229 65.867,66.567 65.731,66.750 65.661 C 66.933 65.591,67.346 65.420,67.667 65.280 C 67.987 65.140,68.662 64.868,69.167 64.675 C 70.063 64.332,70.223 64.267,71.250 63.833 C 71.525 63.717,71.919 63.557,72.125 63.478 C 72.832 63.205,73.251 63.034,73.871 62.761 C 74.213 62.611,75.001 62.297,75.621 62.064 C 76.242 61.831,77.012 61.526,77.333 61.387 C 77.654 61.247,78.085 61.065,78.292 60.983 C 79.035 60.686,79.431 60.522,80.281 60.156 L 81.146 59.783 80.188 59.331 C 77.313 57.971,73.979 57.470,70.250 57.839 " stroke="none" fill="#f3eb2c" fill-rule="evenodd"></path><path id="path3" d="M40.667 48.255 C 39.041 48.449,38.300 48.578,36.583 48.968 C 35.241 49.272,32.306 50.333,30.674 51.104 L 29.000 51.896 29.000 56.688 C 29.000 61.889,28.992 61.851,29.948 61.320 C 32.019 60.169,33.421 59.544,35.333 58.918 C 36.112 58.663,36.900 58.395,37.083 58.322 C 37.482 58.164,38.157 58.041,39.833 57.825 C 41.415 57.620,41.642 57.528,40.583 57.520 C 40.125 57.516,39.075 57.665,38.250 57.851 C 37.425 58.037,36.543 58.230,36.290 58.280 C 36.036 58.331,35.788 58.438,35.738 58.519 C 35.688 58.600,35.500 58.667,35.321 58.667 C 35.142 58.667,34.865 58.733,34.706 58.814 C 34.547 58.895,34.229 59.037,34.000 59.130 C 32.531 59.726,31.018 60.450,29.789 61.143 L 29.161 61.497 29.206 56.790 L 29.250 52.083 30.750 51.356 C 31.575 50.955,32.438 50.553,32.667 50.461 C 32.896 50.369,33.214 50.228,33.373 50.147 C 33.532 50.066,33.809 50.000,33.988 50.000 C 34.167 50.000,34.355 49.934,34.405 49.853 C 34.455 49.771,34.703 49.666,34.956 49.618 C 35.209 49.570,35.894 49.410,36.476 49.263 C 41.584 47.974,46.317 48.155,50.167 49.787 C 51.355 50.291,52.253 50.750,52.372 50.914 C 52.445 51.015,52.496 50.982,52.497 50.832 C 52.499 50.694,52.256 50.473,51.958 50.341 C 50.088 49.512,48.766 49.000,48.497 49.000 C 48.326 49.000,48.145 48.933,48.094 48.851 C 47.979 48.664,46.937 48.511,43.083 48.115 C 42.717 48.077,41.629 48.140,40.667 48.255 M70.127 48.232 C 69.064 48.349,68.252 48.521,68.127 48.656 C 67.953 48.843,67.974 48.861,68.250 48.760 C 70.877 47.792,77.053 48.614,81.417 50.511 C 82.901 51.156,87.307 52.261,86.083 51.681 C 85.900 51.595,85.591 51.518,85.397 51.512 C 85.057 51.500,82.266 50.644,81.583 50.341 C 80.776 49.983,78.281 49.134,77.208 48.853 C 75.503 48.405,75.192 48.343,74.167 48.249 C 73.571 48.194,72.821 48.123,72.500 48.092 C 72.179 48.061,71.111 48.124,70.127 48.232 M99.667 48.251 C 97.075 48.572,95.596 49.085,93.795 50.288 C 92.013 51.477,91.293 51.689,88.583 51.818 L 86.417 51.922 87.583 52.069 C 89.646 52.329,91.639 51.852,93.667 50.611 C 96.666 48.777,97.934 48.444,101.917 48.447 C 106.724 48.450,109.565 49.202,113.203 51.434 L 113.989 51.917 113.992 56.750 C 113.994 59.408,113.940 61.503,113.872 61.406 C 113.805 61.308,113.412 61.000,113.000 60.720 C 107.551 57.033,99.915 56.430,95.793 59.362 C 95.542 59.541,95.186 59.699,95.002 59.712 C 94.817 59.726,94.667 59.797,94.667 59.869 C 94.667 60.130,95.178 59.990,95.956 59.515 C 97.795 58.391,99.270 57.893,101.167 57.755 C 102.834 57.634,107.074 58.049,107.261 58.351 C 107.312 58.433,107.486 58.500,107.648 58.500 C 108.350 58.500,111.454 59.950,113.001 61.001 C 113.528 61.359,114.006 61.605,114.063 61.548 C 114.120 61.491,114.167 59.286,114.167 56.647 L 114.167 51.849 113.434 51.345 C 110.873 49.583,107.657 48.510,104.167 48.254 C 103.479 48.203,102.579 48.133,102.167 48.098 C 101.754 48.063,100.629 48.132,99.667 48.251 M41.875 57.448 C 42.035 57.490,42.298 57.490,42.458 57.448 C 42.619 57.406,42.487 57.372,42.167 57.372 C 41.846 57.372,41.715 57.406,41.875 57.448 M43.667 57.667 C 43.896 57.740,44.398 57.808,44.782 57.817 C 45.166 57.826,45.527 57.908,45.583 58.000 C 45.640 58.092,45.833 58.167,46.012 58.167 C 46.191 58.167,46.468 58.234,46.627 58.317 C 48.687 59.390,49.754 59.763,49.933 59.474 C 50.006 59.355,49.978 59.327,49.859 59.401 C 49.754 59.466,48.973 59.187,48.125 58.780 C 46.489 57.995,44.767 57.489,43.823 57.517 C 43.293 57.532,43.281 57.543,43.667 57.667 M68.917 57.770 C 67.489 58.027,66.140 58.459,64.667 59.133 C 64.162 59.363,63.656 59.553,63.542 59.554 C 63.427 59.555,63.333 59.618,63.333 59.694 C 63.333 59.923,63.541 59.863,65.146 59.167 C 65.992 58.800,66.825 58.500,66.998 58.500 C 67.172 58.500,67.355 58.433,67.406 58.351 C 67.613 58.016,71.588 57.655,73.833 57.767 C 76.346 57.893,78.034 58.312,80.240 59.355 C 80.796 59.618,81.362 59.831,81.500 59.829 C 81.756 59.826,81.459 59.667,79.816 58.931 C 76.783 57.572,72.534 57.119,68.917 57.770 M40.417 70.667 C 40.233 70.745,39.776 70.815,39.400 70.822 C 39.024 70.828,38.499 70.899,38.233 70.979 C 37.967 71.059,37.337 71.216,36.833 71.326 C 34.853 71.760,33.124 72.390,30.375 73.679 L 29.000 74.324 29.000 79.162 C 29.000 84.537,28.970 84.411,30.083 83.661 C 30.959 83.070,33.116 82.087,34.917 81.458 C 36.791 80.803,37.254 80.667,37.603 80.667 C 37.785 80.667,38.005 80.599,38.092 80.515 C 38.280 80.336,39.456 80.192,41.792 80.064 C 42.731 80.012,43.500 79.920,43.500 79.860 C 43.500 79.670,39.645 79.950,38.296 80.238 C 35.845 80.759,32.498 82.019,30.500 83.171 C 29.034 84.016,29.167 84.417,29.167 79.152 L 29.167 74.481 30.904 73.657 C 31.860 73.204,32.724 72.833,32.823 72.833 C 32.923 72.833,33.135 72.761,33.294 72.672 C 34.734 71.869,42.025 70.428,43.047 70.744 C 43.159 70.779,43.925 70.844,44.750 70.890 C 46.237 70.972,46.243 70.971,45.417 70.752 C 44.484 70.506,40.932 70.445,40.417 70.667 M98.917 70.702 C 96.897 71.080,95.475 71.633,93.842 72.674 C 92.434 73.572,91.528 73.944,90.278 74.139 C 89.153 74.313,88.667 74.539,88.667 74.886 C 88.667 74.984,88.760 74.945,88.875 74.800 C 88.990 74.654,89.458 74.486,89.917 74.426 C 91.277 74.246,92.321 73.836,94.062 72.796 C 99.220 69.716,107.788 70.177,113.123 73.820 L 113.996 74.417 113.998 79.125 L 114.000 83.833 113.208 83.266 C 109.781 80.814,104.258 79.389,100.500 79.988 C 98.641 80.284,97.962 80.553,95.393 82.008 C 92.093 83.877,89.567 84.335,85.833 83.742 C 85.311 83.658,85.285 83.671,85.583 83.864 C 86.113 84.205,90.645 84.159,91.946 83.798 C 92.910 83.531,94.480 82.884,94.667 82.676 C 94.948 82.363,98.316 80.667,98.655 80.667 C 98.834 80.667,99.020 80.602,99.069 80.524 C 99.386 80.010,105.946 80.009,106.264 80.523 C 106.313 80.602,106.575 80.667,106.845 80.667 C 107.116 80.667,107.468 80.732,107.627 80.813 C 107.786 80.893,108.217 81.053,108.583 81.169 C 109.448 81.441,111.734 82.527,111.806 82.700 C 111.836 82.773,111.940 82.833,112.036 82.833 C 112.132 82.833,112.576 83.096,113.022 83.417 C 113.469 83.737,113.909 84.000,114.000 84.000 C 114.107 84.000,114.165 82.259,114.163 79.125 L 114.160 74.250 113.491 73.777 C 109.991 71.300,103.283 69.885,98.917 70.702 M70.583 79.944 C 68.120 80.245,66.264 80.777,64.167 81.782 C 61.711 82.959,60.351 83.451,58.529 83.820 C 57.381 84.053,55.667 84.055,55.667 83.823 C 55.667 83.726,55.590 83.694,55.497 83.752 C 55.108 83.992,55.591 84.167,56.646 84.167 C 58.736 84.167,60.626 83.676,63.090 82.495 C 63.826 82.141,64.651 81.765,64.923 81.658 C 66.541 81.023,67.627 80.667,67.948 80.667 C 68.149 80.667,68.354 80.602,68.403 80.523 C 68.643 80.134,73.251 79.979,75.500 80.284 C 76.279 80.390,76.979 80.416,77.054 80.342 C 77.130 80.269,77.017 80.206,76.804 80.203 C 76.591 80.200,75.781 80.116,75.004 80.016 C 73.665 79.843,71.677 79.811,70.583 79.944 M39.333 93.174 C 39.012 93.252,38.300 93.404,37.750 93.511 C 36.716 93.713,34.170 94.410,33.583 94.651 C 33.400 94.727,33.063 94.864,32.833 94.957 C 32.207 95.209,30.858 95.829,29.875 96.316 L 29.001 96.750 29.000 101.625 C 29.000 106.782,29.001 106.789,29.755 106.276 C 30.437 105.811,32.030 105.000,32.260 105.000 C 32.392 105.000,32.500 104.925,32.500 104.833 C 32.500 104.742,32.635 104.667,32.800 104.667 C 32.965 104.667,33.171 104.599,33.258 104.517 C 33.563 104.229,36.915 103.147,38.583 102.798 C 39.777 102.548,44.673 102.440,44.892 102.658 C 44.988 102.755,45.229 102.833,45.427 102.833 C 45.920 102.833,47.728 103.598,49.856 104.706 C 53.294 106.495,56.459 106.999,59.557 106.249 C 60.715 105.969,61.141 105.806,63.250 104.841 C 65.627 103.753,65.942 103.616,66.417 103.465 C 68.210 102.893,69.348 102.673,71.119 102.557 C 72.118 102.491,72.543 102.392,72.694 102.191 C 72.868 101.960,72.864 101.949,72.667 102.125 C 72.527 102.250,71.962 102.333,71.258 102.333 C 69.245 102.334,66.480 103.057,64.083 104.211 C 58.102 107.091,54.988 107.106,49.467 104.282 C 45.917 102.466,44.166 102.034,41.177 102.237 C 39.704 102.338,39.252 102.411,37.333 102.864 C 35.285 103.348,30.418 105.371,29.758 106.013 C 29.209 106.547,29.167 106.226,29.167 101.517 L 29.167 96.868 30.208 96.372 C 33.315 94.893,35.300 94.231,38.833 93.495 C 40.291 93.192,43.786 93.098,45.349 93.319 C 48.081 93.707,48.784 93.933,52.000 95.457 C 56.027 97.365,57.343 97.346,62.500 95.299 C 67.089 93.479,73.552 92.456,74.291 93.433 C 74.524 93.742,74.528 93.742,74.471 93.417 C 74.401 93.024,70.073 92.936,68.333 93.292 C 65.946 93.781,65.930 93.786,63.000 94.862 C 62.496 95.048,61.915 95.267,61.708 95.350 C 61.502 95.432,61.165 95.567,60.958 95.650 C 59.424 96.263,57.733 96.668,56.726 96.663 C 55.261 96.655,54.591 96.441,51.750 95.070 C 49.665 94.063,48.566 93.674,46.750 93.301 C 45.687 93.082,40.104 92.986,39.333 93.174 M98.583 93.162 C 98.400 93.243,98.011 93.315,97.718 93.322 C 97.426 93.328,97.140 93.408,97.083 93.500 C 97.027 93.592,96.849 93.667,96.690 93.667 C 96.302 93.667,94.801 94.414,93.667 95.171 C 91.051 96.917,86.086 97.141,83.127 95.646 C 82.968 95.566,82.723 95.500,82.583 95.500 C 82.443 95.500,82.180 95.425,81.998 95.333 C 81.816 95.242,81.518 95.092,81.336 95.000 C 80.928 94.795,80.833 94.791,80.833 94.983 C 80.833 95.065,81.640 95.397,82.625 95.720 C 87.668 97.377,91.097 97.256,93.840 95.325 C 96.542 93.423,100.705 92.726,105.311 93.405 C 106.353 93.558,107.243 93.646,107.289 93.600 C 107.371 93.518,107.202 93.471,106.000 93.239 C 105.080 93.061,98.953 92.997,98.583 93.162 M108.417 94.019 C 110.738 94.782,112.750 95.761,113.625 96.552 C 113.997 96.889,114.000 96.931,114.000 101.529 C 114.000 105.993,113.948 106.456,113.506 105.924 C 112.954 105.258,109.496 103.559,107.583 103.014 C 103.101 101.737,99.440 102.094,95.833 104.162 C 94.054 105.183,93.365 105.521,92.250 105.923 C 92.067 105.989,91.167 106.144,90.250 106.266 L 88.583 106.490 90.167 106.427 C 91.037 106.393,91.975 106.273,92.250 106.162 C 92.525 106.050,92.919 105.893,93.125 105.813 C 93.726 105.579,94.410 105.258,94.500 105.167 C 94.546 105.121,94.808 104.971,95.083 104.833 C 95.358 104.696,95.621 104.542,95.667 104.491 C 95.760 104.386,98.233 103.176,98.750 102.981 C 99.749 102.606,103.945 102.444,105.417 102.724 C 108.017 103.219,111.054 104.449,112.937 105.771 C 113.499 106.164,114.005 106.440,114.062 106.382 C 114.120 106.325,114.167 104.116,114.167 101.474 L 114.167 96.670 113.375 96.089 C 112.940 95.770,112.496 95.506,112.389 95.504 C 112.282 95.502,112.169 95.444,112.139 95.375 C 111.979 95.015,108.469 93.654,107.762 93.679 C 107.572 93.685,107.867 93.838,108.417 94.019 M77.503 102.794 C 77.501 102.910,77.744 103.110,78.042 103.239 C 78.340 103.367,78.883 103.600,79.250 103.756 C 79.617 103.912,80.517 104.322,81.250 104.666 C 81.983 105.010,82.883 105.426,83.250 105.591 C 84.447 106.130,86.188 106.501,87.405 106.477 L 88.583 106.455 87.333 106.326 C 85.898 106.178,84.323 105.844,84.092 105.640 C 84.005 105.563,83.838 105.500,83.721 105.500 C 83.604 105.500,82.577 105.052,81.438 104.504 C 80.300 103.956,79.004 103.385,78.559 103.234 C 78.114 103.084,77.695 102.876,77.628 102.772 C 77.540 102.638,77.504 102.644,77.503 102.794 " stroke="none" fill="#a7d074" fill-rule="evenodd"></path><path id="path4" d="M62.278 19.444 C 62.217 19.506,62.167 19.726,62.167 19.935 C 62.167 20.143,62.092 20.360,62.000 20.417 C 61.908 20.473,61.833 20.698,61.833 20.917 C 61.833 21.135,61.758 21.360,61.667 21.417 C 61.575 21.473,61.500 21.736,61.500 22.000 C 61.500 22.264,61.425 22.527,61.333 22.583 C 61.242 22.640,61.167 22.854,61.167 23.060 C 61.167 23.265,61.104 23.505,61.028 23.592 C 60.952 23.679,60.797 24.087,60.685 24.500 C 60.287 25.957,59.303 29.087,59.152 29.373 C 59.069 29.532,59.000 29.777,59.000 29.917 C 59.000 30.057,58.931 30.301,58.848 30.461 C 58.764 30.620,58.421 31.650,58.086 32.750 C 57.750 33.850,57.415 34.938,57.341 35.167 C 57.267 35.396,57.039 36.146,56.834 36.833 C 56.628 37.521,56.402 38.233,56.331 38.417 C 56.211 38.724,55.197 41.976,54.797 43.333 C 54.703 43.654,54.560 44.047,54.480 44.206 C 54.399 44.365,54.333 44.610,54.333 44.750 C 54.333 44.890,54.266 45.135,54.183 45.294 C 54.100 45.453,53.942 45.921,53.831 46.333 C 53.720 46.746,53.570 47.233,53.499 47.417 C 52.920 48.901,52.420 50.902,52.667 50.750 C 52.758 50.693,52.833 50.500,52.833 50.321 C 52.833 50.142,52.901 49.865,52.983 49.706 C 53.065 49.547,53.301 48.854,53.506 48.167 C 53.711 47.479,54.012 46.504,54.175 46.000 C 54.337 45.496,54.747 44.183,55.085 43.083 C 55.424 41.983,55.758 40.933,55.827 40.750 C 55.897 40.567,56.033 40.154,56.129 39.833 C 56.225 39.512,56.564 38.425,56.883 37.417 C 57.201 36.408,57.704 34.796,58.001 33.833 C 58.298 32.871,58.675 31.671,58.839 31.167 C 59.002 30.662,59.413 29.350,59.752 28.250 C 60.091 27.150,60.426 26.100,60.497 25.917 C 60.569 25.733,60.785 25.058,60.979 24.417 C 61.172 23.775,61.598 22.406,61.926 21.375 L 62.522 19.500 71.522 19.500 L 80.522 19.500 80.405 19.875 C 80.340 20.081,80.102 20.662,79.876 21.167 C 79.649 21.671,79.369 22.308,79.252 22.583 C 79.135 22.858,78.844 23.517,78.603 24.046 C 78.363 24.576,78.167 25.042,78.167 25.083 C 78.167 25.124,77.971 25.590,77.732 26.120 C 77.493 26.650,77.193 27.327,77.065 27.625 C 76.938 27.923,76.728 28.410,76.599 28.708 C 76.470 29.006,76.163 29.738,75.915 30.333 C 75.668 30.929,75.315 31.754,75.132 32.167 C 74.948 32.579,74.686 33.179,74.548 33.500 C 74.411 33.821,74.165 34.383,74.002 34.750 C 73.839 35.117,73.388 36.167,72.999 37.083 C 72.611 38.000,72.145 39.087,71.962 39.500 C 71.311 40.977,71.185 41.267,70.661 42.500 C 69.788 44.555,69.646 44.887,69.333 45.583 C 68.216 48.074,68.068 48.500,68.322 48.500 C 68.420 48.500,68.500 48.390,68.500 48.255 C 68.500 48.120,68.679 47.614,68.897 47.130 C 69.116 46.646,69.534 45.688,69.827 45.000 C 70.119 44.313,70.466 43.506,70.596 43.208 C 70.727 42.910,70.953 42.385,71.100 42.042 C 71.247 41.698,71.432 41.267,71.510 41.083 C 71.589 40.900,71.918 40.163,72.243 39.446 C 72.568 38.729,72.833 38.109,72.833 38.069 C 72.833 38.029,72.991 37.641,73.183 37.207 C 73.376 36.772,73.593 36.267,73.666 36.083 C 73.739 35.900,73.987 35.337,74.218 34.833 C 74.450 34.329,74.840 33.429,75.085 32.833 C 75.331 32.237,75.637 31.506,75.766 31.208 C 75.895 30.910,76.104 30.423,76.232 30.125 C 76.360 29.827,76.660 29.150,76.899 28.620 C 77.138 28.090,77.333 27.624,77.333 27.583 C 77.333 27.542,77.530 27.076,77.770 26.546 C 78.010 26.017,78.302 25.358,78.419 25.083 C 78.535 24.808,78.813 24.171,79.036 23.667 C 79.259 23.162,79.656 22.225,79.918 21.583 C 80.179 20.942,80.455 20.345,80.530 20.258 C 80.605 20.171,80.667 19.928,80.667 19.717 L 80.667 19.333 71.528 19.333 C 66.501 19.333,62.339 19.383,62.278 19.444 M49.527 60.090 C 49.421 60.324,49.333 60.658,49.333 60.831 C 49.333 61.005,49.258 61.193,49.167 61.250 C 49.075 61.307,49.000 61.500,49.000 61.679 C 49.000 61.858,48.931 62.135,48.848 62.294 C 48.719 62.538,47.927 65.027,47.297 67.167 C 47.203 67.487,47.060 67.880,46.980 68.039 C 46.899 68.199,46.833 68.443,46.833 68.583 C 46.833 68.723,46.768 68.968,46.687 69.127 C 46.467 69.562,46.166 70.575,46.175 70.845 C 46.188 71.205,46.560 70.182,47.423 67.417 C 47.852 66.042,48.263 64.767,48.337 64.583 C 48.411 64.400,48.508 64.100,48.552 63.917 C 48.595 63.733,48.903 62.729,49.236 61.684 C 49.815 59.864,49.939 59.187,49.527 60.090 M62.753 60.875 C 62.500 61.448,62.182 62.179,62.046 62.500 C 61.910 62.821,61.734 63.233,61.655 63.417 C 59.423 68.573,59.388 68.667,59.683 68.667 C 59.797 68.667,61.770 67.910,64.070 66.984 C 66.369 66.059,68.400 65.242,68.583 65.168 C 68.767 65.094,69.181 64.918,69.503 64.777 C 69.826 64.636,70.839 64.224,71.753 63.861 C 73.282 63.255,79.306 60.829,80.083 60.507 C 81.129 60.075,81.550 59.840,81.290 59.837 C 81.128 59.835,80.641 59.991,80.207 60.183 C 79.772 60.376,79.267 60.591,79.083 60.661 C 78.627 60.836,78.028 61.084,77.333 61.387 C 77.012 61.526,76.242 61.831,75.621 62.064 C 75.001 62.297,74.213 62.611,73.871 62.761 C 73.251 63.034,72.832 63.205,72.125 63.478 C 71.683 63.648,70.984 63.935,70.458 64.162 C 70.252 64.251,69.671 64.482,69.167 64.675 C 68.662 64.868,67.987 65.140,67.667 65.280 C 66.992 65.574,66.391 65.824,65.917 66.007 C 63.543 66.925,60.716 68.087,60.592 68.195 C 59.916 68.784,59.768 68.358,60.256 67.229 C 60.933 65.658,60.992 65.520,61.150 65.125 C 61.233 64.919,61.521 64.262,61.791 63.667 C 62.061 63.071,62.495 62.058,62.755 61.417 C 63.015 60.775,63.299 60.156,63.385 60.042 C 63.483 59.910,63.480 59.833,63.377 59.833 C 63.286 59.833,63.005 60.302,62.753 60.875 M94.547 60.204 C 94.455 60.321,94.061 61.242,93.673 62.250 C 93.284 63.258,92.854 64.346,92.716 64.667 C 92.434 65.324,92.200 65.887,91.955 66.500 C 91.864 66.729,91.714 67.104,91.622 67.333 C 91.415 67.852,91.340 68.042,90.579 70.000 C 89.823 71.942,89.716 72.213,89.478 72.792 C 88.989 73.978,88.816 74.500,88.914 74.500 C 89.025 74.500,89.635 73.083,90.492 70.833 C 91.143 69.124,91.225 68.920,91.567 68.140 C 91.714 67.805,92.104 66.830,92.433 65.974 C 92.762 65.117,93.128 64.192,93.247 63.917 C 93.366 63.642,93.708 62.779,94.008 62.000 C 94.308 61.221,94.627 60.488,94.717 60.371 C 94.807 60.254,94.843 60.121,94.798 60.075 C 94.752 60.029,94.639 60.088,94.547 60.204 M42.856 81.208 C 42.648 81.873,42.251 83.167,41.972 84.083 C 41.694 85.000,41.406 85.900,41.333 86.083 C 40.208 88.919,39.882 90.907,40.605 90.533 C 40.777 90.445,41.104 90.292,41.333 90.193 C 41.563 90.094,42.337 89.748,43.054 89.424 C 43.771 89.099,44.394 88.833,44.439 88.833 C 44.484 88.833,45.023 88.601,45.636 88.317 C 46.248 88.033,46.900 87.736,47.083 87.657 C 47.267 87.578,48.003 87.248,48.721 86.924 C 49.438 86.599,50.061 86.333,50.106 86.333 C 50.151 86.333,50.689 86.101,51.302 85.817 C 53.940 84.594,54.936 84.167,55.150 84.167 C 55.251 84.167,55.333 84.093,55.333 84.002 C 55.333 83.831,54.562 84.110,52.583 84.994 C 51.942 85.281,51.267 85.580,51.083 85.658 C 50.900 85.736,50.375 85.968,49.917 86.172 C 49.458 86.377,48.746 86.690,48.334 86.867 C 47.311 87.308,46.541 87.646,45.750 88.000 C 41.034 90.116,40.333 90.381,40.333 90.053 C 40.333 89.934,40.627 88.979,40.837 88.417 C 40.906 88.233,41.227 87.221,41.551 86.167 C 42.370 83.503,43.281 80.640,43.419 80.292 C 43.483 80.131,43.467 80.000,43.384 80.000 C 43.301 80.000,43.063 80.544,42.856 81.208 M76.944 80.444 C 76.883 80.506,76.833 80.753,76.833 80.994 C 76.833 81.236,76.766 81.505,76.684 81.592 C 76.601 81.679,76.493 82.050,76.442 82.417 C 76.268 83.683,75.079 89.787,74.832 90.686 C 74.741 91.017,74.674 91.505,74.684 91.769 L 74.701 92.250 74.835 91.750 C 74.964 91.271,75.064 90.793,75.498 88.583 C 75.605 88.033,75.757 87.283,75.833 86.917 C 75.989 86.175,76.170 85.252,76.671 82.667 C 76.857 81.704,77.038 80.785,77.072 80.625 C 77.141 80.309,77.116 80.273,76.944 80.444 M84.914 84.278 C 84.759 84.629,84.575 85.067,84.505 85.250 C 84.435 85.433,84.293 85.790,84.189 86.042 C 84.085 86.294,83.931 86.669,83.846 86.875 C 83.761 87.081,83.339 88.150,82.908 89.250 C 82.478 90.350,82.028 91.475,81.909 91.750 C 81.285 93.197,80.663 94.885,80.729 94.951 C 80.797 95.020,81.160 94.294,81.495 93.417 C 81.624 93.079,81.769 92.722,82.209 91.667 C 82.343 91.346,82.695 90.446,82.992 89.667 C 83.631 87.990,83.720 87.765,84.053 87.000 C 84.694 85.526,85.340 83.784,85.271 83.715 C 85.229 83.674,85.069 83.927,84.914 84.278 M74.437 92.638 C 74.363 92.851,74.347 93.069,74.401 93.124 C 74.574 93.296,74.696 93.042,74.632 92.639 L 74.571 92.250 74.437 92.638 M72.346 103.375 C 72.236 103.948,72.079 104.679,71.997 105.000 C 71.914 105.321,71.804 105.846,71.751 106.167 C 71.697 106.487,71.584 107.087,71.499 107.500 C 71.414 107.912,71.277 108.625,71.194 109.083 C 71.112 109.542,70.811 111.079,70.526 112.500 C 70.241 113.921,69.925 115.496,69.825 116.000 C 69.725 116.504,69.573 117.188,69.488 117.519 C 69.403 117.851,69.333 118.353,69.333 118.635 C 69.333 118.916,69.258 119.193,69.167 119.250 C 69.075 119.307,69.000 119.682,69.000 120.083 C 69.000 120.485,68.935 120.854,68.855 120.903 C 68.775 120.953,68.665 121.351,68.610 121.788 C 68.555 122.226,68.435 122.958,68.342 123.417 C 67.433 127.905,67.452 127.738,67.909 127.282 C 68.051 127.140,68.167 126.942,68.167 126.843 C 68.167 126.744,68.233 126.532,68.314 126.373 C 68.468 126.070,68.788 125.319,69.005 124.750 C 69.075 124.567,69.245 124.154,69.383 123.833 C 69.521 123.513,69.948 122.425,70.332 121.417 C 70.716 120.408,71.130 119.358,71.252 119.083 C 71.373 118.808,71.781 117.796,72.158 116.833 C 72.535 115.871,72.906 114.933,72.983 114.750 C 73.236 114.143,73.498 113.506,73.667 113.083 C 73.758 112.854,73.908 112.479,74.000 112.250 C 74.092 112.021,74.236 111.665,74.321 111.458 C 74.406 111.252,74.826 110.183,75.256 109.083 C 76.303 106.399,76.263 106.500,76.572 105.795 C 77.283 104.179,77.682 102.947,77.426 103.159 C 77.283 103.277,77.167 103.478,77.167 103.606 C 77.167 103.734,77.100 103.968,77.019 104.127 C 76.938 104.286,76.788 104.623,76.686 104.875 C 76.584 105.127,76.427 105.502,76.339 105.708 C 76.250 105.915,75.230 108.483,74.073 111.417 C 72.915 114.350,71.855 117.013,71.717 117.333 C 71.449 117.957,71.441 117.976,70.753 119.750 C 70.504 120.392,70.223 121.104,70.128 121.333 C 70.033 121.563,69.890 121.919,69.811 122.125 C 69.732 122.331,69.592 122.688,69.500 122.917 C 69.408 123.146,69.266 123.502,69.184 123.708 C 68.892 124.438,68.554 125.255,68.373 125.667 L 68.189 126.083 68.178 125.603 C 68.172 125.338,68.236 124.851,68.322 124.519 C 68.407 124.188,68.559 123.504,68.660 123.000 C 69.475 118.934,70.220 115.179,70.280 114.833 C 70.319 114.604,70.416 114.117,70.496 113.750 C 70.669 112.949,70.788 112.348,71.738 107.500 C 72.572 103.242,72.728 102.333,72.621 102.333 C 72.579 102.333,72.456 102.802,72.346 103.375 " stroke="none" fill="#ef9f2d" fill-rule="evenodd"></path></g></svg>