<svg id="svg" version="1.1" xmlns="http://www.w3.org/2000/svg" xmlns:xlink="http://www.w3.org/1999/xlink" width="400" height="400" viewBox="0, 0, 400,400"><g id="svgg"><path id="path0" d="M108.200 135.620 C 106.000 136.034,103.480 136.570,102.600 136.813 C 101.720 137.055,100.370 137.397,99.600 137.572 C 95.899 138.414,88.518 141.274,83.200 143.928 L 81.000 145.026 80.895 158.113 C 80.837 165.311,80.849 171.200,80.923 171.200 C 80.996 171.200,83.774 169.850,87.095 168.200 C 90.417 166.550,93.338 165.200,93.586 165.200 C 93.835 165.200,94.784 164.840,95.694 164.400 C 96.605 163.960,97.666 163.600,98.052 163.600 C 98.437 163.600,98.851 163.441,98.971 163.246 C 99.092 163.051,99.687 162.798,100.295 162.682 C 100.903 162.567,102.480 162.185,103.800 161.833 C 115.737 158.650,125.380 159.452,135.060 164.431 C 138.179 166.035,139.200 166.047,139.200 164.478 C 139.200 164.134,139.543 162.851,139.962 161.627 C 140.381 160.402,141.390 157.240,142.205 154.600 C 143.020 151.960,144.208 148.201,144.844 146.247 C 145.480 144.293,146.000 142.463,146.000 142.180 C 146.000 141.723,144.233 140.759,139.514 138.642 C 131.482 135.039,118.138 133.752,108.200 135.620 M192.400 135.344 C 189.754 135.918,189.200 136.229,189.200 137.144 C 189.200 137.527,189.047 138.011,188.860 138.220 C 188.673 138.429,188.228 139.357,187.870 140.283 C 187.513 141.209,186.835 142.829,186.364 143.883 C 185.892 144.937,185.279 146.340,184.999 147.000 C 183.905 149.588,180.673 157.085,179.999 158.600 C 176.572 166.306,176.524 166.648,179.039 165.444 C 179.677 165.138,180.920 164.582,181.800 164.210 C 182.680 163.838,183.671 163.394,184.002 163.224 C 188.672 160.831,201.268 159.505,209.200 160.572 C 215.612 161.434,218.056 162.154,224.095 164.961 C 227.985 166.769,227.702 166.796,234.300 163.984 C 234.795 163.773,235.605 163.444,236.100 163.254 C 237.160 162.845,238.839 162.156,240.100 161.611 C 240.595 161.397,241.990 160.843,243.200 160.380 C 244.410 159.917,246.030 159.263,246.800 158.928 C 247.570 158.593,248.560 158.172,249.000 157.994 C 265.276 151.394,270.927 149.194,271.119 149.385 C 271.364 149.630,270.781 151.476,269.597 154.200 C 267.671 158.635,264.474 166.800,264.664 166.800 C 264.784 166.800,266.730 165.808,268.990 164.596 C 277.798 159.871,288.620 158.723,297.800 161.539 C 298.460 161.741,299.810 162.128,300.800 162.399 C 305.168 163.594,311.281 166.456,315.500 169.282 L 318.400 171.224 318.400 158.046 L 318.400 144.868 316.500 143.493 C 302.607 133.434,277.098 131.653,263.546 139.796 C 254.322 145.339,245.925 146.705,237.600 144.016 C 237.050 143.838,235.790 143.466,234.800 143.189 C 231.344 142.221,230.009 141.769,224.800 139.802 C 214.170 135.788,209.300 134.786,200.656 134.834 C 197.325 134.852,193.610 135.082,192.400 135.344 M113.399 197.881 C 107.929 198.387,105.734 198.748,101.800 199.792 C 97.759 200.864,92.621 202.512,92.220 202.866 C 92.011 203.049,91.607 203.200,91.322 203.200 C 90.764 203.200,85.740 205.413,82.800 206.953 L 81.000 207.896 80.894 220.977 L 80.789 234.057 81.694 233.776 C 82.193 233.622,83.084 233.154,83.676 232.738 C 85.232 231.642,91.593 228.733,96.000 227.102 C 100.115 225.580,101.859 225.081,108.060 223.653 C 109.084 223.417,112.361 223.102,115.344 222.952 L 120.766 222.680 122.612 216.840 C 123.628 213.628,124.650 210.370,124.885 209.600 C 125.119 208.830,125.447 207.840,125.614 207.400 C 126.369 205.410,128.473 198.342,128.344 198.231 C 127.720 197.697,117.883 197.466,113.399 197.881 M278.995 197.853 C 271.416 198.513,268.958 199.326,262.200 203.404 C 257.010 206.536,254.317 207.583,251.400 207.602 C 248.406 207.621,248.192 207.910,244.735 216.600 C 242.985 221.000,241.384 225.005,241.177 225.500 C 240.970 225.995,240.642 226.805,240.450 227.300 C 240.257 227.795,239.637 229.334,239.071 230.721 C 238.343 232.505,238.182 233.291,238.521 233.410 C 241.636 234.507,249.707 234.732,254.200 233.848 C 259.055 232.891,261.522 231.844,268.200 227.905 C 274.596 224.132,278.021 223.231,286.000 223.222 C 291.652 223.216,298.178 224.065,301.000 225.175 C 301.440 225.348,302.520 225.718,303.400 225.997 C 307.057 227.156,313.503 230.563,317.500 233.448 L 318.400 234.098 318.400 220.883 L 318.400 207.668 316.484 206.262 C 312.090 203.036,304.840 200.124,297.400 198.597 C 293.578 197.813,283.931 197.423,278.995 197.853 M214.200 207.833 C 212.440 208.607,210.237 209.591,209.304 210.020 C 208.372 210.449,207.515 210.800,207.400 210.800 C 207.284 210.800,205.887 211.407,204.295 212.150 C 201.142 213.620,200.291 214.000,195.200 216.215 C 193.330 217.028,190.900 218.098,189.800 218.592 C 188.700 219.086,186.450 220.076,184.800 220.792 C 180.622 222.605,178.597 223.504,175.672 224.843 C 174.282 225.479,173.068 226.000,172.974 226.000 C 172.880 226.000,171.439 226.630,169.772 227.400 C 168.105 228.170,166.673 228.800,166.589 228.800 C 166.505 228.800,165.303 229.320,163.918 229.955 C 162.533 230.590,160.770 231.381,160.000 231.712 C 159.230 232.043,157.610 232.773,156.400 233.333 L 154.200 234.352 157.776 234.376 C 161.119 234.398,165.157 233.886,167.000 233.206 C 167.440 233.044,168.520 232.680,169.400 232.398 C 170.882 231.923,172.023 231.438,177.400 228.995 C 181.150 227.291,182.200 226.836,184.400 225.964 C 186.537 225.117,187.380 224.886,192.000 223.879 C 194.582 223.317,209.078 223.229,212.492 223.755 C 215.072 224.153,214.835 224.394,215.591 220.600 C 216.095 218.074,216.963 213.824,217.593 210.800 C 218.594 205.998,218.519 205.932,214.200 207.833 M112.200 260.608 C 108.128 261.083,106.231 261.431,102.300 262.422 C 98.922 263.273,97.359 263.707,96.600 264.004 C 96.160 264.177,94.630 264.719,93.200 265.211 C 89.799 266.379,87.261 267.473,83.814 269.255 L 81.000 270.711 80.895 283.755 C 80.824 292.535,80.924 296.800,81.202 296.800 C 81.430 296.800,82.287 296.384,83.108 295.875 C 84.881 294.776,91.098 291.778,93.383 290.920 C 94.273 290.586,95.627 290.034,96.394 289.693 C 97.160 289.352,98.330 288.930,98.994 288.756 C 99.657 288.581,101.910 287.968,104.000 287.394 C 109.233 285.958,116.503 285.339,121.724 285.886 C 127.584 286.501,129.556 287.233,140.600 292.889 C 151.805 298.629,162.426 298.713,174.338 293.158 C 176.176 292.301,177.738 291.600,177.811 291.600 C 177.883 291.600,179.305 290.970,180.972 290.200 C 182.639 289.430,184.185 288.800,184.407 288.800 C 184.629 288.800,185.123 288.627,185.505 288.416 C 187.201 287.478,193.321 286.299,197.493 286.107 C 202.513 285.876,202.759 285.746,203.230 283.079 C 203.509 281.495,204.011 278.906,204.835 274.800 C 205.034 273.810,205.370 272.010,205.583 270.800 C 205.795 269.590,206.317 266.991,206.743 265.025 C 207.169 263.059,207.432 261.228,207.328 260.956 C 206.610 259.085,186.910 260.893,182.705 263.216 C 182.323 263.427,181.736 263.600,181.400 263.600 C 181.064 263.600,180.477 263.767,180.095 263.971 C 179.713 264.176,177.600 264.999,175.400 265.802 C 173.200 266.604,171.040 267.419,170.600 267.613 C 161.967 271.423,155.349 271.602,148.214 268.220 C 146.048 267.193,140.309 264.558,139.000 263.988 C 131.567 260.756,121.645 259.504,112.200 260.608 M277.200 260.599 C 271.126 261.390,268.733 262.253,262.800 265.791 C 253.245 271.488,245.426 272.267,234.200 268.640 C 233.100 268.285,231.570 267.800,230.800 267.564 C 230.030 267.327,228.836 266.880,228.147 266.570 C 225.228 265.258,225.433 265.019,221.957 273.800 C 220.216 278.200,218.613 282.205,218.396 282.700 C 218.178 283.195,217.842 284.005,217.650 284.500 C 217.457 284.995,217.099 285.900,216.853 286.511 C 216.432 287.559,216.475 287.635,217.612 287.862 C 218.275 287.995,218.914 288.260,219.032 288.452 C 219.150 288.643,219.532 288.800,219.880 288.800 C 220.228 288.800,222.963 289.979,225.957 291.421 C 233.004 294.814,232.585 294.632,235.600 295.617 C 245.474 298.844,257.488 297.341,266.195 291.790 C 277.968 284.285,292.603 283.883,307.946 290.644 C 310.365 291.710,315.459 294.657,316.331 295.495 C 318.495 297.574,318.420 298.026,318.305 283.552 L 318.200 270.271 316.000 268.778 C 306.147 262.092,290.715 258.839,277.200 260.599 " stroke="none" fill="#2dace2" fill-rule="evenodd"></path><path id="path1" d="M174.104 54.500 C 173.740 55.260,171.826 61.253,170.303 66.400 C 170.076 67.170,169.750 68.160,169.580 68.600 C 169.410 69.040,168.601 71.560,167.783 74.200 C 165.501 81.561,164.907 83.459,163.468 88.000 C 162.736 90.310,161.721 93.550,161.212 95.200 C 160.704 96.850,159.883 99.460,159.388 101.000 C 158.893 102.540,157.731 106.230,156.806 109.200 C 155.882 112.170,154.720 115.860,154.225 117.400 C 153.730 118.940,152.936 121.460,152.461 123.000 C 150.538 129.238,148.575 135.387,146.203 142.600 C 144.829 146.780,143.035 152.360,142.216 155.000 C 141.397 157.640,140.407 160.790,140.017 162.000 C 139.627 163.210,139.111 164.920,138.872 165.800 C 138.633 166.680,137.606 170.100,136.589 173.400 C 135.573 176.700,134.550 180.030,134.315 180.800 C 134.081 181.570,133.756 182.560,133.592 183.000 C 133.429 183.440,132.885 185.150,132.384 186.800 C 131.883 188.450,130.437 192.950,129.170 196.800 C 127.904 200.650,126.334 205.510,125.681 207.600 C 122.886 216.545,120.746 223.510,120.335 225.000 C 120.092 225.880,119.578 227.590,119.193 228.800 C 118.808 230.010,117.819 233.160,116.995 235.800 C 116.170 238.440,115.358 240.960,115.188 241.400 C 115.019 241.840,114.490 243.550,114.012 245.200 C 113.533 246.850,112.885 248.879,112.571 249.708 C 111.474 252.606,111.760 252.635,117.297 250.184 C 119.554 249.185,121.760 248.216,122.200 248.030 C 122.640 247.843,124.405 247.040,126.121 246.245 C 127.838 245.450,129.318 244.800,129.409 244.800 C 129.572 244.800,131.629 243.889,136.728 241.556 C 138.118 240.920,139.328 240.400,139.416 240.400 C 139.504 240.400,140.572 239.950,141.788 239.400 C 143.005 238.850,144.995 237.950,146.212 237.400 C 147.428 236.850,148.509 236.400,148.614 236.400 C 148.718 236.400,149.737 235.950,150.877 235.400 C 152.017 234.850,153.098 234.400,153.279 234.400 C 153.590 234.400,154.603 233.972,159.100 231.942 C 160.743 231.201,163.321 230.070,166.200 228.828 C 166.640 228.638,168.040 228.014,169.311 227.441 C 170.582 226.869,171.689 226.400,171.771 226.400 C 171.853 226.400,173.513 225.671,175.460 224.781 C 177.407 223.890,179.360 223.009,179.800 222.822 C 180.240 222.636,181.640 222.014,182.911 221.441 C 184.182 220.869,185.302 220.400,185.399 220.400 C 185.497 220.400,186.527 219.970,187.688 219.445 C 192.267 217.374,193.863 216.660,195.400 215.997 C 197.507 215.088,200.398 213.789,203.600 212.313 C 205.030 211.654,207.097 210.761,208.193 210.327 C 209.289 209.893,211.179 209.083,212.393 208.526 C 213.607 207.970,215.476 207.168,216.547 206.744 L 218.495 205.974 218.233 207.887 C 217.979 209.737,217.481 212.293,216.806 215.200 C 216.627 215.970,216.087 218.850,215.605 221.600 C 215.124 224.350,214.495 227.770,214.208 229.200 C 213.921 230.630,213.474 232.880,213.215 234.200 C 212.956 235.520,212.576 237.251,212.372 238.046 C 212.167 238.842,212.000 239.909,212.000 240.418 C 212.000 240.927,211.826 241.896,211.614 242.572 C 211.401 243.247,210.660 246.680,209.966 250.200 C 208.360 258.348,208.405 258.128,206.202 268.800 C 204.255 278.232,204.179 278.618,202.836 286.000 C 201.923 291.022,201.894 291.169,200.717 297.000 C 200.273 299.200,199.766 301.720,199.592 302.600 C 199.417 303.480,199.059 305.280,198.797 306.600 C 198.534 307.920,198.181 309.810,198.012 310.800 C 197.842 311.790,197.029 315.840,196.205 319.800 C 195.381 323.760,194.547 327.900,194.353 329.000 C 194.159 330.100,193.812 331.900,193.582 333.000 C 193.352 334.100,193.017 335.810,192.839 336.800 C 192.660 337.790,191.940 341.369,191.238 344.753 C 189.864 351.376,189.777 353.220,190.959 350.600 C 191.781 348.780,191.684 349.019,194.204 342.600 C 195.241 339.960,196.231 337.440,196.404 337.000 C 196.577 336.560,197.013 335.529,197.374 334.708 C 197.735 333.888,198.286 332.489,198.600 331.600 C 198.914 330.711,199.430 329.402,199.748 328.692 C 200.065 327.981,201.261 324.970,202.405 322.000 C 203.549 319.030,204.754 315.970,205.083 315.200 C 205.412 314.430,205.843 313.395,206.041 312.900 C 206.238 312.405,206.565 311.595,206.767 311.100 C 206.968 310.605,207.798 308.490,208.611 306.400 C 210.696 301.040,210.633 301.197,211.560 299.104 C 212.022 298.062,212.400 297.099,212.400 296.965 C 212.400 296.831,212.646 296.154,212.947 295.460 C 213.699 293.728,216.216 287.627,217.675 284.000 C 218.338 282.350,219.037 280.640,219.227 280.200 C 220.013 278.384,225.140 265.208,225.998 262.800 C 226.507 261.370,227.076 260.029,227.262 259.820 C 227.448 259.611,227.600 259.204,227.600 258.916 C 227.600 258.627,227.937 257.628,228.348 256.696 C 228.760 255.763,229.948 252.840,230.989 250.200 C 233.151 244.712,233.429 244.015,234.054 242.500 C 234.303 241.895,234.644 241.040,234.812 240.600 C 235.537 238.701,236.945 235.278,237.609 233.800 C 238.005 232.920,238.890 230.760,239.576 229.000 C 240.263 227.240,241.023 225.350,241.266 224.800 C 241.508 224.250,241.851 223.440,242.026 223.000 C 246.942 210.667,248.400 206.889,248.400 206.482 C 248.400 206.211,248.571 205.677,248.780 205.295 C 248.989 204.913,250.621 200.910,252.407 196.400 C 254.194 191.890,255.823 187.795,256.028 187.300 C 256.992 184.969,257.330 184.140,257.620 183.400 C 257.792 182.960,258.601 180.890,259.418 178.800 C 260.235 176.710,261.240 174.237,261.652 173.304 C 262.063 172.372,262.400 171.373,262.400 171.084 C 262.400 170.796,262.551 170.389,262.735 170.180 C 262.919 169.971,263.477 168.810,263.976 167.600 C 264.475 166.390,265.119 164.860,265.407 164.200 C 265.696 163.540,266.953 160.390,268.201 157.200 C 269.449 154.010,270.647 151.067,270.863 150.661 C 271.670 149.142,270.369 149.339,265.688 151.449 C 264.527 151.972,263.399 152.400,263.183 152.400 C 262.966 152.400,262.477 152.565,262.095 152.767 C 260.943 153.376,257.866 154.675,256.800 155.003 C 256.250 155.171,254.670 155.825,253.290 156.455 C 251.909 157.085,250.602 157.600,250.385 157.600 C 250.167 157.600,249.677 157.759,249.295 157.953 C 248.207 158.507,246.784 159.108,244.400 160.020 C 243.190 160.483,241.570 161.137,240.800 161.472 C 240.030 161.807,238.995 162.243,238.500 162.441 C 238.005 162.638,237.195 162.964,236.700 163.165 C 236.205 163.366,234.360 164.106,232.600 164.809 C 230.840 165.512,228.500 166.495,227.400 166.992 C 226.300 167.490,221.710 169.377,217.200 171.186 C 212.690 172.995,208.460 174.710,207.800 174.997 C 207.140 175.284,204.710 176.271,202.400 177.190 C 200.090 178.109,197.750 179.051,197.200 179.284 C 196.650 179.517,195.840 179.845,195.400 180.014 C 194.960 180.182,193.737 180.703,192.683 181.170 C 191.629 181.638,190.009 182.302,189.083 182.647 C 188.157 182.992,186.950 183.462,186.400 183.691 C 185.850 183.920,185.040 184.245,184.600 184.413 C 184.160 184.581,183.170 184.988,182.400 185.318 C 180.973 185.928,177.247 187.436,175.800 187.988 C 173.645 188.810,171.524 189.688,169.104 190.760 C 165.290 192.450,165.078 192.074,167.215 187.403 C 168.951 183.609,169.837 181.594,170.997 178.800 C 171.590 177.370,172.347 175.570,172.679 174.800 C 173.010 174.030,173.429 173.040,173.609 172.600 C 173.789 172.160,174.565 170.450,175.333 168.800 C 176.102 167.150,177.666 163.640,178.810 161.000 C 179.953 158.360,181.210 155.480,181.603 154.600 C 181.996 153.720,182.804 151.830,183.400 150.400 C 183.996 148.970,184.804 147.080,185.197 146.200 C 187.624 140.762,190.000 135.112,190.000 134.779 C 190.000 134.566,190.378 133.538,190.840 132.496 C 191.302 131.453,191.834 130.240,192.023 129.800 C 192.212 129.360,193.004 127.592,193.783 125.871 C 194.563 124.150,195.200 122.663,195.200 122.566 C 195.200 122.397,195.843 120.920,197.846 116.489 C 198.371 115.328,198.800 114.298,198.800 114.201 C 198.800 114.103,199.269 112.983,199.843 111.712 C 200.417 110.440,201.115 108.860,201.395 108.200 C 201.675 107.540,202.376 105.960,202.952 104.689 C 203.528 103.418,204.000 102.291,204.000 102.185 C 204.000 102.078,204.360 101.183,204.800 100.196 C 205.240 99.208,205.960 97.592,206.400 96.604 C 206.840 95.617,207.200 94.730,207.200 94.634 C 207.200 94.537,207.830 93.095,208.600 91.428 C 209.370 89.761,210.000 88.312,210.000 88.208 C 210.000 88.105,210.540 86.841,211.200 85.400 C 211.860 83.959,212.400 82.699,212.400 82.601 C 212.400 82.502,212.872 81.382,213.448 80.111 C 214.024 78.840,214.724 77.260,215.002 76.600 C 216.073 74.060,219.328 66.508,220.174 64.600 C 220.662 63.500,221.576 61.340,222.205 59.800 C 222.834 58.260,223.474 56.820,223.628 56.600 C 223.782 56.380,224.033 55.615,224.186 54.900 L 224.464 53.600 199.499 53.600 L 174.535 53.600 174.104 54.500 " stroke="none" fill="#e32d2c" fill-rule="evenodd"></path><path id="path2" d="M0.000 200.000 L 0.000 400.000 199.753 400.000 L 399.507 400.000 399.748 399.100 C 400.063 397.923,400.063 2.077,399.748 0.900 L 399.507 0.000 199.753 0.000 L 0.000 0.000 0.000 200.000 M225.066 53.827 C 225.198 54.172,225.120 54.847,224.893 55.327 C 224.053 57.102,221.689 62.549,221.216 63.800 C 221.050 64.240,220.528 65.382,220.057 66.338 C 219.586 67.294,219.200 68.229,219.200 68.417 C 219.200 68.604,218.550 70.162,217.755 71.879 C 216.960 73.595,216.168 75.360,215.994 75.800 C 215.821 76.240,215.297 77.463,214.830 78.517 C 214.362 79.571,213.687 81.191,213.330 82.117 C 212.972 83.043,212.527 83.971,212.340 84.180 C 212.153 84.389,212.000 84.884,212.000 85.280 C 212.000 85.676,211.820 86.000,211.600 86.000 C 211.380 86.000,211.200 86.272,211.200 86.604 C 211.200 86.937,210.817 88.062,210.348 89.104 C 209.037 92.020,208.136 94.065,207.486 95.600 C 207.160 96.370,206.512 97.853,206.047 98.896 C 205.581 99.938,205.200 100.878,205.200 100.985 C 205.200 101.091,204.731 102.218,204.158 103.489 C 201.916 108.460,201.488 109.428,201.190 110.200 C 200.826 111.145,200.015 113.038,198.792 115.800 C 197.231 119.327,196.879 120.158,196.009 122.372 C 195.539 123.566,194.608 125.726,193.938 127.172 C 193.269 128.617,192.578 130.160,192.402 130.600 C 192.226 131.040,191.778 132.090,191.407 132.932 C 190.526 134.933,190.544 134.941,194.668 134.435 C 201.672 133.576,212.077 134.387,215.295 136.043 C 215.677 136.239,216.431 136.400,216.971 136.400 C 217.511 136.400,218.064 136.580,218.200 136.800 C 218.336 137.020,218.799 137.200,219.229 137.200 C 219.659 137.200,220.323 137.367,220.705 137.571 C 221.087 137.776,223.200 138.596,225.400 139.394 C 227.600 140.193,229.713 141.016,230.095 141.223 C 230.477 141.430,231.231 141.600,231.771 141.600 C 232.311 141.600,232.851 141.759,232.971 141.954 C 233.092 142.149,233.687 142.401,234.295 142.514 C 234.903 142.627,236.896 143.098,238.725 143.560 C 241.249 144.198,243.292 144.400,247.201 144.400 C 253.779 144.400,256.290 143.619,262.800 139.546 C 272.164 133.687,280.406 132.767,299.303 135.470 C 300.129 135.588,300.905 135.845,301.026 136.042 C 301.148 136.239,301.689 136.400,302.229 136.400 C 302.769 136.400,303.523 136.558,303.905 136.751 C 304.287 136.944,305.320 137.320,306.200 137.586 C 310.681 138.942,318.185 143.384,318.821 145.055 C 319.355 146.460,319.315 170.237,318.777 171.243 C 318.370 172.003,318.281 171.981,316.477 170.662 C 311.112 166.739,303.777 163.610,295.200 161.585 C 288.583 160.023,277.546 161.058,271.977 163.762 C 266.057 166.637,263.608 168.433,263.602 169.905 C 263.601 170.183,263.441 170.723,263.247 171.105 C 262.915 171.758,262.480 172.788,261.644 174.900 C 261.448 175.395,260.635 177.420,259.838 179.400 C 259.041 181.380,258.391 183.225,258.394 183.500 C 258.397 183.775,258.220 184.000,258.000 184.000 C 257.780 184.000,257.600 184.362,257.600 184.805 C 257.600 185.248,257.441 185.923,257.247 186.305 C 256.693 187.393,256.092 188.816,255.180 191.200 C 254.717 192.410,254.063 194.030,253.728 194.800 C 252.937 196.617,252.661 197.309,251.580 200.200 C 250.462 203.191,249.642 205.193,249.166 206.095 C 248.965 206.477,248.800 206.882,248.800 206.995 C 248.800 207.337,252.298 207.225,253.281 206.851 C 253.787 206.659,254.884 206.284,255.720 206.018 C 257.097 205.579,259.223 204.459,263.800 201.759 C 266.834 199.970,269.894 198.610,271.800 198.205 C 282.616 195.905,296.305 196.795,306.400 200.457 C 307.830 200.976,309.060 201.535,309.133 201.700 C 309.207 201.865,309.503 202.000,309.793 202.000 C 310.437 202.000,314.760 204.244,315.631 205.030 C 315.979 205.344,316.392 205.600,316.549 205.600 C 316.706 205.600,317.322 206.051,317.917 206.603 L 319.000 207.607 319.121 220.391 C 319.267 235.914,319.367 235.531,315.831 233.007 C 314.438 232.013,313.111 231.200,312.883 231.200 C 312.654 231.200,312.407 231.058,312.333 230.885 C 312.043 230.200,302.445 226.000,301.169 226.000 C 300.772 226.000,300.348 225.839,300.226 225.642 C 300.105 225.445,299.329 225.183,298.503 225.058 C 297.676 224.933,295.920 224.643,294.600 224.412 C 284.021 222.565,276.600 223.740,268.200 228.594 C 263.193 231.487,258.268 233.765,256.000 234.237 C 254.102 234.632,240.004 234.654,238.984 234.263 C 238.269 233.989,238.054 234.239,237.249 236.275 C 236.743 237.554,236.166 239.005,235.965 239.500 C 235.342 241.036,234.814 242.363,234.454 243.300 C 234.263 243.795,233.922 244.650,233.695 245.200 C 233.468 245.750,232.885 247.190,232.400 248.400 C 231.914 249.610,231.247 251.230,230.918 252.000 C 230.083 253.951,229.755 254.787,229.193 256.400 C 228.925 257.170,228.375 258.545,227.971 259.456 C 227.568 260.367,227.119 261.583,226.974 262.160 C 226.830 262.736,226.551 263.306,226.356 263.427 C 225.530 263.938,226.048 265.121,227.300 265.585 C 228.015 265.850,228.913 266.232,229.295 266.433 C 229.677 266.635,230.341 266.800,230.771 266.800 C 231.201 266.800,231.651 266.959,231.771 267.154 C 231.892 267.349,232.487 267.598,233.095 267.709 C 233.703 267.820,235.190 268.199,236.400 268.551 C 246.157 271.392,254.039 270.524,261.600 265.778 C 263.030 264.880,264.785 263.889,265.500 263.575 C 266.215 263.261,266.800 262.869,266.800 262.702 C 266.800 262.536,267.149 262.400,267.576 262.400 C 268.003 262.400,268.464 262.220,268.600 262.000 C 268.736 261.780,269.257 261.600,269.757 261.600 C 270.257 261.600,270.799 261.468,270.960 261.306 C 273.048 259.219,291.602 259.163,299.700 261.219 C 303.843 262.271,304.654 262.506,305.295 262.839 C 305.677 263.038,306.215 263.200,306.492 263.200 C 307.609 263.200,316.210 267.832,317.668 269.219 L 319.231 270.706 319.116 283.920 C 319.052 291.188,318.880 297.254,318.733 297.401 C 318.585 297.548,317.145 296.781,315.533 295.697 C 312.829 293.880,307.702 291.089,305.800 290.398 C 305.360 290.238,304.550 289.921,304.000 289.694 C 302.696 289.154,299.098 288.127,296.700 287.610 C 295.655 287.384,293.987 287.020,292.994 286.800 C 290.590 286.268,281.517 286.289,279.446 286.832 C 275.348 287.906,274.443 288.218,272.000 289.398 C 269.260 290.722,266.074 292.471,264.400 293.572 C 263.045 294.462,261.245 295.267,258.200 296.343 C 252.373 298.403,240.080 298.422,236.305 296.376 C 235.923 296.169,235.336 296.000,235.000 296.000 C 234.664 296.000,234.077 295.841,233.695 295.647 C 233.313 295.452,232.550 295.115,232.000 294.896 C 231.450 294.677,229.290 293.687,227.200 292.695 C 221.734 290.102,219.667 289.200,219.184 289.200 C 218.951 289.200,218.267 288.945,217.663 288.633 C 216.455 288.008,216.498 287.955,215.205 291.600 C 214.931 292.370,214.278 293.950,213.754 295.111 C 213.229 296.272,212.800 297.399,212.800 297.616 C 212.800 297.833,212.641 298.323,212.447 298.705 C 212.252 299.087,211.916 299.850,211.700 300.400 C 211.484 300.950,211.103 301.895,210.854 302.500 C 209.945 304.702,209.641 305.467,208.182 309.200 C 207.366 311.290,206.465 313.540,206.180 314.200 C 205.895 314.860,205.283 316.390,204.820 317.600 C 204.357 318.810,203.803 320.205,203.589 320.700 C 203.375 321.195,203.044 322.005,202.854 322.500 C 202.663 322.995,202.323 323.850,202.098 324.400 C 201.874 324.950,201.024 327.110,200.211 329.200 C 199.398 331.290,198.568 333.405,198.367 333.900 C 198.165 334.395,197.820 335.250,197.600 335.800 C 197.380 336.350,197.020 337.250,196.800 337.800 C 196.580 338.350,196.238 339.205,196.039 339.700 C 195.840 340.195,195.178 341.860,194.567 343.400 C 193.956 344.940,193.309 346.371,193.128 346.580 C 192.948 346.789,192.800 347.338,192.800 347.800 C 192.800 348.262,192.645 348.811,192.455 349.020 C 192.265 349.229,191.593 350.750,190.962 352.400 C 189.948 355.049,188.386 357.604,188.408 356.575 C 188.431 355.524,189.467 349.851,190.597 344.600 C 190.975 342.840,191.452 340.500,191.655 339.400 C 191.859 338.300,192.200 336.545,192.413 335.500 C 192.626 334.455,192.954 332.745,193.141 331.700 C 193.509 329.657,195.739 318.578,196.181 316.600 C 196.329 315.940,196.607 314.590,196.800 313.600 C 196.993 312.610,197.258 311.260,197.389 310.600 C 197.520 309.940,197.801 308.455,198.013 307.300 C 198.862 302.693,199.295 300.495,199.807 298.200 C 200.102 296.880,200.547 294.720,200.796 293.400 C 201.045 292.080,201.417 290.447,201.624 289.772 C 202.667 286.363,200.608 285.472,194.706 286.777 C 193.768 286.985,192.010 287.358,190.800 287.607 C 188.770 288.025,185.738 288.890,183.800 289.604 C 182.884 289.942,180.767 290.893,176.200 293.019 C 174.440 293.838,172.595 294.664,172.100 294.854 C 171.605 295.044,170.795 295.368,170.300 295.574 C 169.805 295.779,168.770 296.126,168.000 296.346 C 167.230 296.565,165.880 296.949,165.000 297.199 C 161.954 298.064,154.773 298.177,151.332 297.414 C 145.956 296.221,144.982 295.827,135.800 291.120 C 127.657 286.947,126.415 286.649,117.200 286.661 C 109.881 286.671,107.483 286.937,103.200 288.218 C 101.990 288.580,100.503 288.970,99.895 289.084 C 99.287 289.199,98.692 289.451,98.571 289.646 C 98.451 289.841,98.001 290.000,97.571 290.000 C 97.141 290.000,96.477 290.159,96.095 290.353 C 95.713 290.548,94.950 290.889,94.400 291.113 C 90.714 292.609,85.084 295.339,82.800 296.739 C 80.287 298.279,80.400 298.880,80.400 284.005 L 80.400 270.410 81.900 269.496 C 82.725 268.993,83.850 268.384,84.400 268.142 C 84.950 267.899,86.210 267.335,87.200 266.888 C 91.709 264.852,97.590 262.953,104.700 261.238 C 113.114 259.209,122.173 259.082,130.800 260.871 C 131.790 261.076,133.187 261.344,133.904 261.466 C 134.621 261.588,135.306 261.849,135.427 262.044 C 135.548 262.240,136.051 262.400,136.544 262.400 C 137.037 262.400,137.611 262.553,137.820 262.740 C 138.029 262.927,138.920 263.358,139.800 263.699 C 140.680 264.040,143.110 265.130,145.200 266.122 C 155.080 270.812,157.702 271.115,166.000 268.528 C 167.870 267.945,169.571 267.318,169.780 267.134 C 169.989 266.950,170.486 266.800,170.885 266.800 C 171.284 266.800,171.923 266.635,172.305 266.434 C 173.536 265.785,175.736 264.913,178.400 264.020 C 179.830 263.540,181.360 263.000,181.800 262.819 C 182.240 262.639,183.365 262.291,184.300 262.046 C 191.481 260.163,195.567 259.594,201.882 259.597 L 207.564 259.600 207.814 258.100 C 208.347 254.908,210.061 246.540,210.421 245.372 C 210.630 244.696,210.800 243.517,210.800 242.752 C 210.800 241.986,210.963 241.189,211.161 240.980 C 211.360 240.771,211.619 239.790,211.738 238.800 C 212.028 236.369,212.522 233.755,213.575 229.063 C 214.593 224.530,214.676 224.737,211.686 224.321 C 203.510 223.181,192.199 223.771,187.400 225.586 C 186.960 225.753,185.880 226.121,185.000 226.405 C 183.402 226.921,181.032 227.961,174.996 230.797 C 172.195 232.112,169.617 233.048,164.972 234.434 C 164.296 234.635,161.465 234.800,158.682 234.800 C 153.878 234.800,153.482 234.863,150.910 236.035 C 149.420 236.714,147.570 237.539,146.800 237.869 C 146.030 238.198,145.087 238.632,144.705 238.834 C 144.323 239.035,143.738 239.200,143.405 239.200 C 143.072 239.200,142.800 239.380,142.800 239.600 C 142.800 239.820,142.564 240.000,142.275 240.000 C 141.986 240.000,141.041 240.336,140.175 240.747 C 139.309 241.158,137.880 241.807,137.000 242.189 C 136.120 242.571,134.680 243.206,133.800 243.600 C 132.920 243.994,131.570 244.590,130.800 244.923 C 130.030 245.257,128.180 246.086,126.690 246.765 C 125.199 247.444,123.714 248.000,123.390 248.000 C 123.065 248.000,122.800 248.180,122.800 248.400 C 122.800 248.620,122.560 248.800,122.266 248.800 C 121.972 248.800,120.487 249.397,118.966 250.128 C 117.445 250.858,115.570 251.697,114.800 251.992 C 114.030 252.287,113.229 252.679,113.020 252.864 C 112.373 253.436,111.200 253.235,111.200 252.553 C 111.200 251.836,112.689 246.999,113.246 245.905 C 113.441 245.523,113.600 244.846,113.600 244.400 C 113.600 243.954,113.762 243.277,113.959 242.895 C 114.157 242.513,114.986 240.040,115.802 237.400 C 116.618 234.760,117.426 232.240,117.597 231.800 C 117.769 231.360,118.130 230.190,118.400 229.200 C 118.670 228.210,119.037 227.040,119.214 226.600 C 119.392 226.160,119.650 225.286,119.787 224.658 L 120.036 223.517 115.118 223.739 C 109.307 224.001,106.548 224.437,101.200 225.940 C 98.061 226.822,94.101 228.289,92.305 229.234 C 91.923 229.435,91.338 229.600,91.005 229.600 C 90.672 229.600,90.400 229.780,90.400 230.000 C 90.400 230.220,90.136 230.400,89.814 230.400 C 89.492 230.400,88.457 230.823,87.514 231.341 C 82.547 234.066,81.116 234.800,80.770 234.800 C 80.535 234.800,80.430 229.584,80.495 221.125 L 80.600 207.450 83.415 206.025 C 84.962 205.241,87.212 204.183,88.415 203.674 C 89.617 203.165,90.913 202.580,91.295 202.374 C 91.677 202.168,92.341 202.000,92.771 202.000 C 93.201 202.000,93.664 201.820,93.800 201.600 C 93.936 201.380,94.476 201.200,95.000 201.200 C 95.524 201.200,96.051 201.041,96.171 200.846 C 96.292 200.651,96.887 200.394,97.495 200.273 C 98.103 200.152,99.590 199.762,100.800 199.406 C 103.212 198.696,106.005 198.119,110.000 197.504 C 113.158 197.019,124.380 196.923,126.610 197.364 L 128.221 197.681 129.742 192.941 C 130.578 190.333,131.429 187.887,131.631 187.505 C 131.834 187.123,132.000 186.446,132.000 186.000 C 132.000 185.554,132.162 184.877,132.361 184.495 C 132.559 184.113,133.376 181.640,134.176 179.000 C 134.976 176.360,135.804 173.887,136.016 173.505 C 136.227 173.123,136.400 172.369,136.400 171.829 C 136.400 171.289,136.580 170.736,136.800 170.600 C 137.020 170.464,137.200 169.924,137.200 169.400 C 137.200 168.876,137.380 168.336,137.600 168.200 C 138.700 167.520,137.873 166.499,135.100 165.113 C 126.028 160.580,120.452 159.704,110.000 161.170 C 104.999 161.871,98.607 163.669,95.505 165.247 C 95.123 165.441,94.633 165.600,94.415 165.600 C 93.628 165.600,84.823 169.755,82.723 171.117 C 80.371 172.644,80.400 172.806,80.403 158.076 L 80.407 144.600 83.703 143.050 C 89.815 140.178,92.930 138.934,97.400 137.582 C 98.280 137.315,99.413 136.941,99.919 136.749 C 100.424 136.557,101.359 136.400,101.995 136.400 C 102.632 136.400,103.252 136.239,103.374 136.042 C 103.495 135.845,104.271 135.590,105.097 135.474 C 105.924 135.358,108.490 134.983,110.800 134.640 C 118.381 133.516,130.189 134.239,133.695 136.043 C 134.077 136.239,134.754 136.400,135.200 136.400 C 135.646 136.400,136.323 136.559,136.705 136.753 C 137.087 136.948,137.850 137.287,138.400 137.508 C 138.950 137.729,140.815 138.565,142.545 139.366 C 145.830 140.888,146.800 140.843,146.800 139.170 C 146.800 138.767,146.969 138.024,147.176 137.519 C 147.383 137.013,148.211 134.440,149.017 131.800 C 149.823 129.160,150.619 126.640,150.786 126.200 C 150.953 125.760,151.271 124.770,151.493 124.000 C 152.585 120.216,154.923 112.920,155.241 112.305 C 155.438 111.923,155.600 111.169,155.600 110.629 C 155.600 110.089,155.780 109.536,156.000 109.400 C 156.220 109.264,156.400 108.801,156.400 108.371 C 156.400 107.941,156.564 107.277,156.764 106.895 C 156.964 106.513,157.613 104.580,158.206 102.600 C 158.800 100.620,159.446 98.687,159.643 98.305 C 159.839 97.923,160.000 97.259,160.000 96.829 C 160.000 96.399,160.180 95.936,160.400 95.800 C 160.620 95.664,160.800 95.111,160.800 94.571 C 160.800 94.031,160.961 93.277,161.157 92.895 C 161.354 92.513,162.000 90.580,162.594 88.600 C 163.187 86.620,163.836 84.687,164.036 84.305 C 164.236 83.923,164.400 83.259,164.400 82.829 C 164.400 82.399,164.580 81.936,164.800 81.800 C 165.020 81.664,165.200 81.111,165.200 80.571 C 165.200 80.031,165.364 79.277,165.564 78.895 C 165.764 78.513,166.595 76.040,167.411 73.400 C 168.227 70.760,169.033 68.240,169.202 67.800 C 169.371 67.360,169.734 66.190,170.009 65.200 C 170.284 64.210,171.115 61.572,171.855 59.338 C 172.595 57.104,173.200 55.025,173.200 54.718 C 173.200 53.216,173.476 53.200,199.493 53.200 C 222.126 53.200,224.851 53.267,225.066 53.827 M196.400 161.038 C 193.115 161.259,187.668 162.486,184.900 163.629 C 184.405 163.833,183.595 164.162,183.100 164.359 C 182.605 164.557,181.570 164.990,180.800 165.321 C 180.030 165.653,178.725 166.202,177.900 166.541 C 177.075 166.881,176.400 167.343,176.400 167.569 C 176.400 167.794,175.931 169.018,175.359 170.289 C 174.786 171.560,174.174 172.960,174.000 173.400 C 173.826 173.840,173.214 175.240,172.641 176.511 C 172.069 177.782,171.600 178.902,171.600 178.999 C 171.600 179.097,171.131 180.217,170.557 181.488 C 169.983 182.760,169.284 184.340,169.003 185.000 C 168.723 185.660,168.112 187.053,167.647 188.096 C 166.273 191.172,166.422 191.249,170.400 189.508 C 171.390 189.075,172.605 188.558,173.100 188.360 C 173.595 188.162,174.405 187.837,174.900 187.637 C 175.395 187.438,176.557 186.992,177.483 186.647 C 178.409 186.302,180.029 185.638,181.083 185.170 C 182.137 184.703,183.450 184.137,184.000 183.913 C 184.550 183.690,185.313 183.348,185.695 183.153 C 186.077 182.959,186.716 182.800,187.115 182.800 C 187.514 182.800,188.011 182.648,188.220 182.462 C 188.429 182.277,189.860 181.614,191.400 180.991 C 192.940 180.367,194.371 179.709,194.580 179.528 C 194.789 179.348,195.338 179.200,195.800 179.200 C 196.262 179.200,196.811 179.052,197.020 178.872 C 197.229 178.691,198.660 178.031,200.200 177.405 C 201.740 176.779,203.720 175.957,204.600 175.579 C 205.480 175.201,207.280 174.491,208.600 174.000 C 209.920 173.509,211.763 172.769,212.695 172.354 C 213.627 171.940,215.607 171.131,217.095 170.557 C 218.583 169.982,220.563 169.172,221.496 168.756 C 222.428 168.340,223.261 168.000,223.347 168.000 C 223.432 168.000,224.182 167.716,225.012 167.369 L 226.522 166.738 224.361 165.725 C 223.173 165.168,221.795 164.552,221.300 164.356 C 220.805 164.160,219.995 163.830,219.500 163.622 C 218.660 163.268,216.432 162.629,212.583 161.635 C 210.858 161.190,200.064 160.792,196.400 161.038 " stroke="none" fill="#f3eb2c" fill-rule="evenodd"></path><path id="path3" d="M110.600 134.635 C 108.620 134.935,106.231 135.299,105.291 135.443 C 104.351 135.588,103.485 135.862,103.367 136.053 C 103.249 136.244,102.632 136.400,101.995 136.400 C 101.359 136.400,100.424 136.557,99.919 136.749 C 99.413 136.941,98.280 137.315,97.400 137.582 C 92.930 138.934,89.815 140.178,83.703 143.050 L 80.407 144.600 80.403 158.076 C 80.400 172.806,80.371 172.644,82.723 171.117 C 84.823 169.755,93.628 165.600,94.415 165.600 C 94.633 165.600,95.123 165.441,95.505 165.247 C 98.607 163.669,104.999 161.871,110.000 161.170 C 120.453 159.704,126.027 160.580,135.103 165.115 C 137.942 166.534,138.021 166.549,138.703 165.805 C 139.229 165.231,139.242 165.162,138.758 165.523 C 138.233 165.915,137.556 165.715,135.060 164.431 C 125.380 159.452,115.737 158.650,103.800 161.833 C 102.480 162.185,100.903 162.567,100.295 162.682 C 99.687 162.798,99.092 163.051,98.971 163.246 C 98.851 163.441,98.437 163.600,98.052 163.600 C 97.666 163.600,96.605 163.960,95.694 164.400 C 94.784 164.840,93.835 165.200,93.586 165.200 C 93.338 165.200,90.417 166.550,87.095 168.200 C 83.774 169.850,80.996 171.200,80.923 171.200 C 80.849 171.200,80.837 165.311,80.895 158.113 L 81.000 145.026 83.200 143.928 C 88.560 141.253,96.021 138.367,99.600 137.584 C 100.370 137.415,101.990 137.008,103.200 136.678 C 114.727 133.539,129.976 134.364,139.514 138.642 C 143.945 140.630,145.967 141.691,146.142 142.120 C 146.249 142.384,146.351 142.280,146.368 141.889 C 146.397 141.246,142.776 139.254,138.400 137.506 C 137.850 137.286,137.087 136.948,136.705 136.753 C 136.323 136.559,135.646 136.400,135.200 136.400 C 134.754 136.400,134.077 136.239,133.695 136.043 C 130.243 134.267,117.971 133.519,110.600 134.635 M193.800 134.485 C 191.895 134.710,190.357 135.110,190.000 135.474 C 189.465 136.020,189.486 136.060,190.200 135.850 C 192.687 135.116,195.937 134.800,201.010 134.800 C 209.301 134.800,214.385 135.869,224.800 139.802 C 230.009 141.769,231.344 142.221,234.800 143.189 C 235.790 143.466,237.050 143.838,237.600 144.016 C 245.925 146.705,254.322 145.339,263.546 139.796 C 270.595 135.561,274.916 134.629,286.188 134.914 C 299.258 135.244,308.860 137.961,316.500 143.493 L 318.400 144.868 318.400 158.046 L 318.400 171.224 315.500 169.282 C 311.281 166.456,305.168 163.594,300.800 162.399 C 299.810 162.128,298.460 161.741,297.800 161.539 C 287.602 158.410,271.505 161.074,264.433 167.059 C 263.585 167.777,265.145 167.427,266.665 166.558 C 270.556 164.334,274.850 162.342,277.097 161.719 C 280.045 160.900,291.929 160.813,295.200 161.585 C 303.777 163.610,311.112 166.739,316.477 170.662 C 318.281 171.981,318.370 172.003,318.777 171.243 C 319.315 170.237,319.355 146.460,318.821 145.055 C 318.185 143.384,310.681 138.942,306.200 137.586 C 305.320 137.320,304.287 136.944,303.905 136.751 C 303.523 136.558,302.769 136.400,302.229 136.400 C 301.689 136.400,301.148 136.239,301.026 136.042 C 300.794 135.666,300.534 135.619,293.200 134.641 C 284.593 133.493,274.883 134.054,269.800 135.993 C 267.889 136.723,264.837 138.272,262.800 139.546 C 256.290 143.619,253.779 144.400,247.201 144.400 C 243.292 144.400,241.249 144.198,238.725 143.560 C 236.896 143.098,234.903 142.627,234.295 142.514 C 233.687 142.401,233.092 142.149,232.971 141.954 C 232.851 141.759,232.311 141.600,231.771 141.600 C 231.231 141.600,230.477 141.430,230.095 141.223 C 229.713 141.016,227.600 140.193,225.400 139.394 C 223.200 138.596,221.087 137.776,220.705 137.571 C 220.323 137.367,219.659 137.200,219.229 137.200 C 218.799 137.200,218.336 137.020,218.200 136.800 C 218.064 136.580,217.511 136.400,216.971 136.400 C 216.431 136.400,215.677 136.239,215.295 136.043 C 212.047 134.372,201.333 133.595,193.800 134.485 M195.600 160.475 C 192.804 160.865,184.991 162.717,184.002 163.224 C 183.671 163.394,182.680 163.838,181.800 164.210 C 180.920 164.582,179.677 165.138,179.039 165.444 C 178.400 165.750,177.635 166.000,177.339 166.000 C 177.042 166.000,176.800 166.192,176.800 166.427 C 176.800 166.914,177.728 166.677,180.400 165.508 C 181.390 165.075,182.560 164.582,183.000 164.414 C 183.440 164.245,184.250 163.916,184.800 163.682 C 185.995 163.174,188.975 162.303,192.000 161.576 C 195.029 160.848,209.416 160.844,212.400 161.569 C 215.481 162.319,218.423 163.182,219.600 163.682 C 220.150 163.916,220.960 164.244,221.400 164.412 C 221.840 164.579,223.208 165.185,224.440 165.758 C 225.672 166.331,227.022 166.789,227.440 166.775 C 228.098 166.753,228.081 166.701,227.307 166.390 C 226.815 166.192,225.195 165.466,223.707 164.776 C 222.218 164.086,220.640 163.376,220.200 163.197 C 213.780 160.592,203.169 159.417,195.600 160.475 M112.400 197.185 C 112.070 197.406,111.011 197.591,110.046 197.594 C 109.082 197.597,107.642 197.764,106.846 197.965 C 106.051 198.166,104.410 198.540,103.200 198.795 C 100.705 199.323,97.339 200.325,96.305 200.848 C 95.923 201.042,95.259 201.200,94.829 201.200 C 94.399 201.200,93.936 201.380,93.800 201.600 C 93.664 201.820,93.201 202.000,92.771 202.000 C 92.341 202.000,91.677 202.168,91.295 202.374 C 90.913 202.580,89.617 203.165,88.415 203.674 C 87.212 204.183,84.962 205.241,83.415 206.025 L 80.600 207.450 80.495 221.125 C 80.428 229.838,80.531 234.800,80.781 234.800 C 80.996 234.800,81.943 234.377,82.886 233.859 C 88.080 231.009,89.302 230.400,89.825 230.400 C 90.141 230.400,90.400 230.220,90.400 230.000 C 90.400 229.780,90.672 229.600,91.005 229.600 C 91.338 229.600,91.923 229.435,92.305 229.234 C 94.101 228.289,98.061 226.822,101.200 225.940 C 106.581 224.428,109.318 223.999,115.200 223.744 C 117.950 223.625,120.380 223.342,120.600 223.114 C 121.107 222.588,110.750 223.033,108.060 223.653 C 101.859 225.081,100.115 225.580,96.000 227.102 C 91.593 228.733,85.232 231.642,83.676 232.738 C 83.084 233.154,82.193 233.622,81.694 233.776 L 80.789 234.057 80.894 220.977 L 81.000 207.896 82.800 206.953 C 85.740 205.413,90.764 203.200,91.322 203.200 C 91.607 203.200,92.011 203.049,92.220 202.866 C 92.621 202.512,97.759 200.864,101.800 199.792 C 108.606 197.986,116.693 197.249,123.662 197.800 C 128.523 198.184,130.062 197.998,126.904 197.407 C 124.305 196.922,113.049 196.749,112.400 197.185 M277.924 197.009 C 277.775 197.159,276.606 197.432,275.326 197.615 C 272.442 198.030,270.836 198.367,269.800 198.776 C 268.341 199.351,265.422 200.802,263.800 201.759 C 259.223 204.459,257.097 205.579,255.720 206.018 C 254.884 206.284,253.787 206.659,253.281 206.851 C 252.776 207.043,251.477 207.200,250.395 207.200 C 248.857 207.200,248.338 207.369,248.012 207.977 C 247.617 208.715,247.652 208.726,248.698 208.180 C 249.304 207.864,250.520 207.602,251.400 207.598 C 254.310 207.586,257.005 206.539,262.200 203.404 C 268.958 199.326,271.416 198.513,278.995 197.853 C 283.931 197.423,293.578 197.813,297.400 198.597 C 304.840 200.124,312.090 203.036,316.484 206.262 L 318.400 207.668 318.400 220.883 L 318.400 234.098 317.500 233.448 C 313.503 230.563,307.057 227.156,303.400 225.997 C 302.520 225.718,301.440 225.348,301.000 225.175 C 298.178 224.065,291.652 223.216,286.000 223.222 C 278.021 223.231,274.596 224.132,268.200 227.905 C 261.522 231.844,259.055 232.891,254.200 233.848 C 250.636 234.549,243.285 234.549,240.300 233.846 C 237.733 233.242,237.173 233.602,239.500 234.361 C 242.036 235.187,255.503 234.668,258.200 233.641 C 259.647 233.089,265.753 230.007,268.200 228.594 C 276.600 223.740,284.021 222.565,294.600 224.412 C 295.920 224.643,297.676 224.933,298.503 225.058 C 299.329 225.183,300.105 225.445,300.226 225.642 C 300.348 225.839,300.772 226.000,301.169 226.000 C 302.445 226.000,312.043 230.200,312.333 230.885 C 312.407 231.058,312.654 231.200,312.883 231.200 C 313.111 231.200,314.438 232.013,315.831 233.007 C 319.367 235.531,319.267 235.914,319.121 220.391 L 319.000 207.607 317.917 206.603 C 317.322 206.051,316.706 205.600,316.549 205.600 C 316.392 205.600,315.979 205.344,315.631 205.030 C 314.760 204.244,310.437 202.000,309.793 202.000 C 309.503 202.000,309.207 201.865,309.133 201.700 C 308.887 201.146,302.966 199.155,299.200 198.360 C 293.977 197.257,278.650 196.284,277.924 197.009 M194.385 223.348 C 194.268 223.466,193.188 223.741,191.986 223.960 C 186.679 224.928,185.319 225.397,177.400 228.995 C 172.023 231.438,170.882 231.923,169.400 232.398 C 168.520 232.680,167.440 233.048,167.000 233.216 C 165.170 233.913,160.385 234.469,157.337 234.339 C 155.542 234.263,154.158 234.335,154.260 234.500 C 154.527 234.928,163.501 234.872,164.972 234.434 C 169.617 233.048,172.195 232.112,174.996 230.797 C 181.032 227.961,183.402 226.921,185.000 226.405 C 185.880 226.121,186.960 225.753,187.400 225.586 C 191.620 223.990,203.694 223.084,208.827 223.979 C 212.097 224.550,214.905 224.649,215.061 224.200 C 215.223 223.733,214.591 223.689,203.200 223.373 C 198.470 223.241,194.503 223.230,194.385 223.348 M112.600 259.789 C 112.380 259.858,110.850 260.126,109.200 260.385 C 107.550 260.644,105.480 261.038,104.600 261.261 C 103.720 261.484,102.280 261.845,101.400 262.065 C 96.922 263.180,90.823 265.252,87.200 266.888 C 86.210 267.335,84.950 267.899,84.400 268.142 C 83.850 268.384,82.725 268.993,81.900 269.496 L 80.400 270.410 80.400 284.005 C 80.400 298.880,80.287 298.279,82.800 296.739 C 85.084 295.339,90.714 292.609,94.400 291.113 C 94.950 290.889,95.713 290.548,96.095 290.353 C 96.477 290.159,97.141 290.000,97.571 290.000 C 98.001 290.000,98.451 289.841,98.571 289.646 C 98.692 289.451,99.287 289.199,99.895 289.084 C 100.503 288.970,101.990 288.580,103.200 288.218 C 107.483 286.937,109.881 286.671,117.200 286.661 C 126.415 286.649,127.657 286.947,135.800 291.120 C 144.982 295.827,145.956 296.221,151.332 297.414 C 154.773 298.177,161.954 298.064,165.000 297.199 C 165.880 296.949,167.230 296.565,168.000 296.346 C 168.770 296.126,169.805 295.779,170.300 295.574 C 170.795 295.368,171.605 295.044,172.100 294.854 C 172.595 294.664,174.440 293.838,176.200 293.019 C 180.767 290.893,182.884 289.942,183.800 289.604 C 185.738 288.890,188.770 288.025,190.800 287.607 C 192.010 287.358,193.768 286.985,194.706 286.777 C 195.644 286.570,197.753 286.400,199.392 286.400 C 201.929 286.400,202.433 286.285,202.786 285.626 C 203.402 284.475,203.287 284.098,202.613 285.060 C 202.093 285.802,201.510 285.922,197.513 286.106 C 193.321 286.299,187.206 287.475,185.505 288.416 C 185.123 288.627,184.629 288.800,184.407 288.800 C 184.185 288.800,182.639 289.430,180.972 290.200 C 179.305 290.970,177.883 291.600,177.811 291.600 C 177.738 291.600,176.176 292.301,174.338 293.158 C 162.426 298.713,151.805 298.629,140.600 292.889 C 129.556 287.233,127.584 286.501,121.724 285.886 C 116.503 285.339,109.233 285.958,104.000 287.394 C 101.910 287.968,99.657 288.581,98.994 288.756 C 98.330 288.930,97.160 289.352,96.394 289.693 C 95.627 290.034,94.273 290.586,93.383 290.920 C 91.098 291.778,84.881 294.776,83.108 295.875 C 82.287 296.384,81.430 296.800,81.202 296.800 C 80.924 296.800,80.824 292.535,80.895 283.755 L 81.000 270.711 83.814 269.255 C 87.261 267.473,89.799 266.379,93.200 265.211 C 94.630 264.719,96.160 264.177,96.600 264.004 C 97.040 263.832,98.120 263.506,99.000 263.279 C 99.880 263.052,101.320 262.676,102.200 262.443 C 115.083 259.040,128.962 259.623,139.000 263.988 C 140.309 264.558,146.048 267.193,148.214 268.220 C 155.349 271.602,161.967 271.423,170.600 267.613 C 171.040 267.419,173.200 266.604,175.400 265.802 C 177.600 264.999,179.713 264.176,180.095 263.971 C 180.477 263.767,181.064 263.600,181.400 263.600 C 181.736 263.600,182.323 263.426,182.705 263.214 C 186.838 260.918,206.067 259.130,207.313 260.925 C 207.525 261.230,207.598 261.113,207.517 260.600 C 207.262 258.987,194.964 259.372,187.500 261.227 C 184.248 262.035,182.565 262.505,181.800 262.819 C 181.360 263.000,179.830 263.540,178.400 264.020 C 175.736 264.913,173.536 265.785,172.305 266.434 C 171.923 266.635,171.284 266.800,170.885 266.800 C 170.486 266.800,169.989 266.950,169.780 267.134 C 169.571 267.318,167.870 267.945,166.000 268.528 C 157.702 271.115,155.080 270.812,145.200 266.122 C 143.110 265.130,140.680 264.040,139.800 263.699 C 138.920 263.358,138.029 262.927,137.820 262.740 C 137.611 262.553,137.037 262.400,136.544 262.400 C 136.051 262.400,135.548 262.240,135.427 262.044 C 135.306 261.849,134.621 261.589,133.904 261.469 C 133.187 261.348,131.700 261.066,130.600 260.842 C 125.557 259.816,123.439 259.607,118.400 259.634 C 115.430 259.650,112.820 259.720,112.600 259.789 M277.800 259.789 C 277.580 259.858,276.050 260.141,274.400 260.419 C 272.750 260.696,271.229 261.075,271.020 261.262 C 270.811 261.448,270.237 261.600,269.744 261.600 C 269.251 261.600,268.736 261.780,268.600 262.000 C 268.464 262.220,268.003 262.400,267.576 262.400 C 267.149 262.400,266.800 262.536,266.800 262.702 C 266.800 262.869,266.215 263.261,265.500 263.575 C 264.785 263.889,263.030 264.880,261.600 265.778 C 254.039 270.524,246.157 271.392,236.400 268.551 C 235.190 268.199,233.703 267.820,233.095 267.709 C 232.487 267.598,231.892 267.349,231.771 267.154 C 231.651 266.959,231.149 266.800,230.656 266.800 C 230.163 266.800,229.589 266.651,229.380 266.470 C 228.632 265.819,225.580 265.060,225.208 265.432 C 224.985 265.656,225.202 265.821,225.763 265.854 C 226.271 265.884,227.296 266.184,228.043 266.521 C 228.789 266.858,230.030 267.327,230.800 267.564 C 231.570 267.800,233.100 268.285,234.200 268.640 C 245.426 272.267,253.245 271.488,262.800 265.791 C 269.116 262.025,271.683 261.184,279.275 260.393 C 291.867 259.082,306.703 262.469,316.000 268.778 L 318.200 270.271 318.305 283.552 C 318.420 298.026,318.495 297.574,316.331 295.495 C 315.459 294.657,310.365 291.710,307.946 290.644 C 292.603 283.883,277.968 284.285,266.195 291.790 C 257.488 297.341,245.474 298.844,235.600 295.617 C 232.585 294.632,233.004 294.814,225.957 291.421 C 222.963 289.979,220.254 288.800,219.937 288.800 C 219.619 288.800,219.189 288.643,218.980 288.452 C 218.771 288.260,218.060 287.987,217.400 287.846 C 215.837 287.510,217.175 288.685,218.800 289.075 C 219.980 289.358,222.026 290.240,227.200 292.695 C 229.290 293.687,231.450 294.677,232.000 294.896 C 232.550 295.115,233.313 295.452,233.695 295.647 C 234.077 295.841,234.664 296.000,235.000 296.000 C 235.336 296.000,235.923 296.169,236.305 296.376 C 240.080 298.422,252.373 298.403,258.200 296.343 C 261.245 295.267,263.045 294.462,264.400 293.572 C 266.074 292.471,269.260 290.722,272.000 289.398 C 274.443 288.218,275.348 287.906,279.446 286.832 C 281.467 286.302,290.560 286.262,292.894 286.773 C 293.832 286.979,295.500 287.343,296.600 287.583 C 298.964 288.099,302.632 289.133,303.900 289.640 C 304.395 289.838,305.205 290.155,305.700 290.344 C 307.834 291.160,312.823 293.876,315.533 295.697 C 317.145 296.781,318.585 297.548,318.733 297.401 C 318.880 297.254,319.052 291.188,319.116 283.920 L 319.231 270.706 317.668 269.219 C 316.210 267.832,307.609 263.200,306.492 263.200 C 306.215 263.200,305.677 263.038,305.295 262.839 C 304.913 262.640,303.880 262.295,303.000 262.072 C 302.120 261.849,300.680 261.481,299.800 261.254 C 294.818 259.971,280.301 259.004,277.800 259.789 " stroke="none" fill="#a6d076" fill-rule="evenodd"></path><path id="path4" d="M173.680 53.680 C 173.416 53.944,173.200 54.411,173.200 54.718 C 173.200 55.025,172.595 57.104,171.855 59.338 C 171.115 61.572,170.284 64.210,170.009 65.200 C 169.734 66.190,169.371 67.360,169.202 67.800 C 169.033 68.240,168.227 70.760,167.411 73.400 C 166.595 76.040,165.764 78.513,165.564 78.895 C 165.364 79.277,165.200 80.031,165.200 80.571 C 165.200 81.111,165.020 81.664,164.800 81.800 C 164.580 81.936,164.400 82.399,164.400 82.829 C 164.400 83.259,164.236 83.923,164.036 84.305 C 163.836 84.687,163.187 86.620,162.594 88.600 C 162.000 90.580,161.354 92.513,161.157 92.895 C 160.961 93.277,160.800 94.031,160.800 94.571 C 160.800 95.111,160.620 95.664,160.400 95.800 C 160.180 95.936,160.000 96.399,160.000 96.829 C 160.000 97.259,159.839 97.923,159.643 98.305 C 159.446 98.687,158.800 100.620,158.206 102.600 C 157.613 104.580,156.964 106.513,156.764 106.895 C 156.564 107.277,156.400 107.941,156.400 108.371 C 156.400 108.801,156.220 109.264,156.000 109.400 C 155.780 109.536,155.600 110.089,155.600 110.629 C 155.600 111.169,155.438 111.923,155.241 112.305 C 154.923 112.920,152.585 120.216,151.493 124.000 C 151.271 124.770,150.953 125.760,150.786 126.200 C 150.500 126.954,148.012 134.949,147.114 138.000 C 146.887 138.770,146.544 139.713,146.351 140.095 C 145.908 140.972,145.909 141.200,146.358 141.200 C 146.554 141.200,147.470 138.815,148.392 135.900 C 149.315 132.985,150.389 129.610,150.779 128.400 C 151.170 127.190,151.902 124.850,152.407 123.200 C 152.911 121.550,153.730 118.940,154.225 117.400 C 154.720 115.860,155.882 112.170,156.806 109.200 C 157.731 106.230,158.893 102.540,159.388 101.000 C 159.883 99.460,160.704 96.850,161.212 95.200 C 161.721 93.550,162.736 90.310,163.468 88.000 C 164.907 83.459,165.501 81.561,167.783 74.200 C 168.601 71.560,169.410 69.040,169.580 68.600 C 169.750 68.160,170.076 67.170,170.303 66.400 C 171.826 61.253,173.740 55.260,174.104 54.500 L 174.535 53.600 199.499 53.600 L 224.464 53.600 224.186 54.900 C 224.033 55.615,223.782 56.380,223.628 56.600 C 223.474 56.820,222.834 58.260,222.205 59.800 C 221.576 61.340,220.662 63.500,220.174 64.600 C 219.328 66.508,216.073 74.060,215.002 76.600 C 214.724 77.260,214.024 78.840,213.448 80.111 C 212.872 81.382,212.400 82.502,212.400 82.601 C 212.400 82.699,211.860 83.959,211.200 85.400 C 210.540 86.841,210.000 88.105,210.000 88.208 C 210.000 88.312,209.370 89.761,208.600 91.428 C 207.830 93.095,207.200 94.537,207.200 94.634 C 207.200 94.730,206.840 95.617,206.400 96.604 C 205.960 97.592,205.240 99.208,204.800 100.196 C 204.360 101.183,204.000 102.078,204.000 102.185 C 204.000 102.291,203.528 103.418,202.952 104.689 C 202.376 105.960,201.675 107.540,201.395 108.200 C 201.115 108.860,200.417 110.440,199.843 111.712 C 199.269 112.983,198.800 114.103,198.800 114.201 C 198.800 114.298,198.371 115.328,197.846 116.489 C 195.843 120.920,195.200 122.397,195.200 122.566 C 195.200 122.663,194.563 124.150,193.783 125.871 C 193.004 127.592,192.212 129.360,192.023 129.800 C 191.834 130.240,191.293 131.473,190.820 132.539 C 190.346 133.605,190.032 134.685,190.121 134.939 C 190.260 135.334,191.279 133.396,192.401 130.600 C 192.577 130.160,193.269 128.617,193.938 127.172 C 194.608 125.726,195.539 123.566,196.009 122.372 C 196.879 120.158,197.231 119.327,198.792 115.800 C 200.015 113.038,200.826 111.145,201.190 110.200 C 201.488 109.428,201.916 108.460,204.158 103.489 C 204.731 102.218,205.200 101.091,205.200 100.985 C 205.200 100.878,205.581 99.938,206.047 98.896 C 206.512 97.853,207.160 96.370,207.486 95.600 C 208.136 94.065,209.037 92.020,210.348 89.104 C 210.817 88.062,211.200 86.937,211.200 86.604 C 211.200 86.272,211.380 86.000,211.600 86.000 C 211.820 86.000,212.000 85.676,212.000 85.280 C 212.000 84.884,212.153 84.389,212.340 84.180 C 212.527 83.971,212.972 83.043,213.330 82.117 C 213.687 81.191,214.362 79.571,214.830 78.517 C 215.297 77.463,215.821 76.240,215.994 75.800 C 216.168 75.360,216.960 73.595,217.755 71.879 C 218.550 70.162,219.200 68.604,219.200 68.417 C 219.200 68.229,219.586 67.294,220.057 66.338 C 220.528 65.382,221.050 64.240,221.216 63.800 C 221.689 62.549,224.053 57.102,224.893 55.327 C 225.943 53.109,227.028 53.200,199.493 53.200 C 180.323 53.200,174.043 53.317,173.680 53.680 M138.158 166.700 C 138.039 167.085,137.775 167.713,137.571 168.095 C 137.367 168.477,137.200 169.141,137.200 169.571 C 137.200 170.001,137.020 170.464,136.800 170.600 C 136.580 170.736,136.400 171.289,136.400 171.829 C 136.400 172.369,136.227 173.123,136.016 173.505 C 135.804 173.887,134.976 176.360,134.176 179.000 C 133.376 181.640,132.559 184.113,132.361 184.495 C 132.162 184.877,132.000 185.554,132.000 186.000 C 132.000 186.446,131.836 187.123,131.635 187.505 C 131.084 188.552,128.398 196.999,128.412 197.640 C 128.442 199.001,129.877 195.072,132.446 186.600 C 132.913 185.060,133.429 183.440,133.592 183.000 C 133.756 182.560,134.080 181.570,134.313 180.800 C 134.546 180.030,135.480 177.063,136.387 174.207 C 138.093 168.839,138.840 166.000,138.545 166.000 C 138.451 166.000,138.277 166.315,138.158 166.700 M175.156 169.100 C 174.500 170.585,173.809 172.160,173.622 172.600 C 173.435 173.040,173.010 174.030,172.679 174.800 C 172.347 175.570,171.590 177.370,170.997 178.800 C 169.837 181.594,168.951 183.609,167.215 187.403 C 165.078 192.074,165.290 192.450,169.104 190.760 C 170.147 190.298,171.360 189.782,171.800 189.614 C 172.240 189.445,173.095 189.103,173.700 188.854 C 174.305 188.604,175.205 188.239,175.700 188.041 C 178.980 186.734,181.185 185.838,182.400 185.318 C 183.170 184.988,184.160 184.581,184.600 184.413 C 185.040 184.245,185.850 183.920,186.400 183.691 C 186.950 183.462,188.157 182.992,189.083 182.647 C 190.009 182.302,191.629 181.638,192.683 181.170 C 193.737 180.703,195.005 180.158,195.500 179.960 C 195.995 179.762,196.805 179.434,197.300 179.230 C 197.795 179.027,200.090 178.109,202.400 177.190 C 204.710 176.271,207.140 175.285,207.800 174.998 C 208.460 174.712,213.184 172.795,218.297 170.738 C 223.411 168.682,227.403 166.936,227.168 166.857 C 226.740 166.713,224.389 167.511,221.400 168.815 C 220.520 169.198,218.583 169.982,217.095 170.557 C 215.607 171.131,213.627 171.940,212.695 172.354 C 211.763 172.769,209.920 173.509,208.600 174.000 C 207.280 174.491,205.480 175.201,204.600 175.579 C 203.720 175.957,201.740 176.779,200.200 177.405 C 198.660 178.031,197.229 178.691,197.020 178.872 C 196.811 179.052,196.262 179.200,195.800 179.200 C 195.338 179.200,194.789 179.348,194.580 179.528 C 194.371 179.709,192.940 180.367,191.400 180.991 C 189.860 181.614,188.429 182.277,188.220 182.462 C 188.011 182.648,187.514 182.800,187.115 182.800 C 186.716 182.800,186.077 182.959,185.695 183.153 C 185.313 183.348,184.550 183.690,184.000 183.913 C 183.450 184.137,182.137 184.703,181.083 185.170 C 180.029 185.638,178.409 186.302,177.483 186.647 C 176.557 186.992,175.395 187.438,174.900 187.637 C 174.405 187.837,173.595 188.162,173.100 188.360 C 172.605 188.558,171.390 189.075,170.400 189.508 C 166.422 191.249,166.273 191.172,167.647 188.096 C 168.112 187.053,168.723 185.660,169.003 185.000 C 169.284 184.340,169.983 182.760,170.557 181.488 C 171.131 180.217,171.600 179.097,171.600 178.999 C 171.600 178.902,172.069 177.782,172.641 176.511 C 173.214 175.240,173.826 173.840,174.000 173.400 C 174.174 172.960,174.761 171.610,175.303 170.400 C 176.511 167.704,176.934 166.400,176.602 166.400 C 176.463 166.400,175.813 167.615,175.156 169.100 M263.264 169.144 C 262.789 170.195,262.400 171.180,262.400 171.332 C 262.400 171.484,262.063 172.372,261.652 173.304 C 261.240 174.237,260.235 176.710,259.418 178.800 C 258.601 180.890,257.744 183.050,257.513 183.600 C 257.282 184.150,256.937 185.005,256.746 185.500 C 256.556 185.995,256.232 186.805,256.028 187.300 C 255.823 187.795,254.190 191.890,252.400 196.400 C 250.610 200.910,248.993 204.960,248.809 205.400 C 247.966 207.406,247.959 207.839,248.786 206.800 C 249.224 206.250,249.586 205.521,249.591 205.180 C 249.596 204.839,249.747 204.389,249.928 204.180 C 250.108 203.971,250.753 202.450,251.360 200.800 C 252.563 197.535,252.812 196.904,253.728 194.800 C 254.063 194.030,254.717 192.410,255.180 191.200 C 256.092 188.816,256.693 187.393,257.247 186.305 C 257.441 185.923,257.600 185.248,257.600 184.805 C 257.600 184.362,257.780 184.000,258.000 184.000 C 258.220 184.000,258.397 183.775,258.394 183.500 C 258.391 183.225,259.041 181.380,259.838 179.400 C 260.635 177.420,261.448 175.395,261.644 174.900 C 263.243 170.858,263.663 169.866,264.255 168.728 C 264.562 168.138,264.659 167.560,264.470 167.444 C 264.282 167.327,263.739 168.092,263.264 169.144 M120.032 223.939 C 119.795 224.384,119.600 225.032,119.600 225.379 C 119.600 225.727,119.438 226.323,119.239 226.705 C 119.040 227.087,118.660 228.210,118.393 229.200 C 118.127 230.190,117.769 231.360,117.597 231.800 C 117.426 232.240,116.618 234.760,115.802 237.400 C 114.986 240.040,114.157 242.513,113.959 242.895 C 113.762 243.277,113.600 243.954,113.600 244.400 C 113.600 244.846,113.441 245.523,113.246 245.905 C 112.689 246.999,111.200 251.836,111.200 252.553 C 111.200 253.235,112.373 253.436,113.020 252.864 C 113.229 252.679,114.030 252.287,114.800 251.992 C 115.570 251.697,117.445 250.858,118.966 250.128 C 120.487 249.397,121.972 248.800,122.266 248.800 C 122.560 248.800,122.800 248.620,122.800 248.400 C 122.800 248.180,123.065 248.000,123.390 248.000 C 123.714 248.000,125.199 247.444,126.690 246.765 C 128.180 246.086,130.030 245.257,130.800 244.923 C 131.570 244.590,132.920 243.994,133.800 243.600 C 134.680 243.206,136.120 242.571,137.000 242.189 C 137.880 241.807,139.309 241.158,140.175 240.747 C 141.041 240.336,141.986 240.000,142.275 240.000 C 142.564 240.000,142.800 239.820,142.800 239.600 C 142.800 239.380,143.072 239.200,143.405 239.200 C 143.738 239.200,144.323 239.035,144.705 238.834 C 145.087 238.632,146.030 238.198,146.800 237.869 C 147.570 237.539,149.370 236.741,150.800 236.094 C 152.230 235.447,153.670 234.815,154.000 234.690 C 154.425 234.529,154.359 234.454,153.775 234.432 C 153.321 234.414,152.017 234.850,150.877 235.400 C 149.737 235.950,148.718 236.400,148.614 236.400 C 148.509 236.400,147.383 236.871,146.112 237.446 C 144.840 238.021,142.850 238.921,141.688 239.446 C 140.527 239.971,139.504 240.400,139.416 240.400 C 139.328 240.400,138.118 240.920,136.728 241.556 C 131.629 243.889,129.572 244.800,129.409 244.800 C 129.318 244.800,127.838 245.450,126.121 246.245 C 124.405 247.040,122.640 247.843,122.200 248.030 C 121.760 248.216,119.554 249.185,117.297 250.184 C 111.760 252.635,111.474 252.606,112.571 249.708 C 112.885 248.879,113.533 246.850,114.012 245.200 C 114.490 243.550,115.019 241.840,115.188 241.400 C 115.358 240.960,116.170 238.440,116.995 235.800 C 118.456 231.121,119.578 227.567,120.446 224.870 C 120.938 223.341,120.673 222.743,120.032 223.939 M213.642 228.800 C 212.520 233.785,212.029 236.361,211.738 238.800 C 211.619 239.790,211.360 240.771,211.161 240.980 C 210.963 241.189,210.800 241.986,210.800 242.752 C 210.800 243.517,210.629 244.696,210.419 245.372 C 210.210 246.047,209.570 249.030,208.997 252.000 C 208.425 254.970,207.803 257.985,207.616 258.700 C 207.423 259.434,207.428 260.094,207.626 260.216 C 207.819 260.335,208.076 259.930,208.198 259.316 C 208.319 258.702,208.591 257.390,208.801 256.400 C 209.011 255.410,209.644 252.170,210.208 249.200 C 210.772 246.230,211.406 243.247,211.617 242.572 C 211.828 241.896,212.000 240.927,212.000 240.418 C 212.000 239.909,212.167 238.842,212.372 238.046 C 212.576 237.251,212.956 235.520,213.215 234.200 C 213.474 232.880,213.953 230.617,214.280 229.170 C 214.607 227.724,214.809 226.104,214.730 225.570 C 214.648 225.011,214.186 226.381,213.642 228.800 M237.248 234.524 C 237.002 235.143,236.422 236.583,235.959 237.724 C 235.496 238.866,234.980 240.160,234.812 240.600 C 234.433 241.594,233.836 243.089,233.294 244.400 C 233.066 244.950,232.029 247.560,230.989 250.200 C 229.948 252.840,228.760 255.763,228.348 256.696 C 227.937 257.628,227.600 258.576,227.600 258.801 C 227.600 259.026,227.421 259.523,227.203 259.905 C 226.013 261.987,225.040 265.200,225.600 265.200 C 225.820 265.200,226.000 264.851,226.000 264.424 C 226.000 263.997,226.160 263.548,226.356 263.427 C 226.551 263.306,226.830 262.736,226.974 262.160 C 227.119 261.583,227.568 260.367,227.971 259.456 C 228.375 258.545,228.925 257.170,229.193 256.400 C 229.755 254.787,230.083 253.951,230.918 252.000 C 231.438 250.785,232.334 248.580,233.641 245.300 C 233.839 244.805,234.204 243.905,234.454 243.300 C 234.703 242.695,235.063 241.795,235.254 241.300 C 235.716 240.098,236.148 239.016,237.182 236.471 C 237.658 235.300,237.968 234.130,237.871 233.871 C 237.775 233.612,237.494 233.906,237.248 234.524 M202.267 286.267 C 202.120 286.413,202.000 286.986,202.000 287.538 C 202.000 288.091,201.831 289.096,201.624 289.772 C 201.417 290.447,201.045 292.080,200.796 293.400 C 200.547 294.720,200.102 296.880,199.807 298.200 C 199.272 300.595,198.675 303.618,197.989 307.400 C 197.790 308.500,197.520 309.940,197.389 310.600 C 197.258 311.260,196.993 312.610,196.800 313.600 C 196.607 314.590,196.329 315.940,196.181 316.600 C 195.739 318.578,193.509 329.657,193.141 331.700 C 192.954 332.745,192.626 334.455,192.413 335.500 C 192.200 336.545,191.859 338.300,191.655 339.400 C 191.452 340.500,190.975 342.840,190.597 344.600 C 189.467 349.851,188.431 355.524,188.408 356.575 C 188.386 357.604,189.948 355.049,190.962 352.400 C 191.593 350.750,192.265 349.229,192.455 349.020 C 192.645 348.811,192.800 348.262,192.800 347.800 C 192.800 347.338,192.948 346.789,193.128 346.580 C 193.309 346.371,193.956 344.940,194.567 343.400 C 195.178 341.860,195.864 340.150,196.092 339.600 C 196.320 339.050,196.663 338.195,196.854 337.700 C 197.044 337.205,197.356 336.395,197.546 335.900 C 197.737 335.405,198.082 334.550,198.313 334.000 C 198.544 333.450,199.398 331.290,200.211 329.200 C 202.307 323.813,202.536 323.238,203.642 320.600 C 203.827 320.160,204.357 318.810,204.820 317.600 C 205.283 316.390,205.895 314.860,206.180 314.200 C 206.465 313.540,207.366 311.290,208.182 309.200 C 209.641 305.467,209.945 304.702,210.854 302.500 C 211.103 301.895,211.484 300.950,211.700 300.400 C 211.916 299.850,212.252 299.087,212.447 298.705 C 212.641 298.323,212.800 297.833,212.800 297.616 C 212.800 297.399,213.229 296.272,213.754 295.111 C 214.278 293.950,214.927 292.370,215.194 291.600 C 215.462 290.830,215.863 289.813,216.087 289.339 C 216.310 288.866,216.416 288.248,216.322 287.965 C 216.227 287.682,215.556 288.969,214.830 290.825 C 214.105 292.681,213.261 294.767,212.955 295.460 C 212.650 296.154,212.400 296.831,212.400 296.965 C 212.400 297.099,212.022 298.062,211.560 299.104 C 210.633 301.197,210.696 301.040,208.611 306.400 C 207.798 308.490,206.992 310.560,206.820 311.000 C 206.405 312.061,205.814 313.490,205.083 315.200 C 204.754 315.970,203.549 319.030,202.405 322.000 C 201.261 324.970,200.065 327.981,199.748 328.692 C 199.430 329.402,198.914 330.711,198.600 331.600 C 198.286 332.489,197.735 333.888,197.374 334.708 C 197.013 335.529,196.577 336.560,196.404 337.000 C 196.231 337.440,195.241 339.960,194.204 342.600 C 191.684 349.019,191.781 348.780,190.959 350.600 C 189.777 353.220,189.864 351.376,191.238 344.753 C 191.940 341.369,192.660 337.790,192.839 336.800 C 193.017 335.810,193.352 334.100,193.582 333.000 C 193.812 331.900,194.159 330.100,194.353 329.000 C 194.547 327.900,195.381 323.760,196.205 319.800 C 197.029 315.840,197.842 311.790,198.012 310.800 C 198.181 309.810,198.534 307.920,198.797 306.600 C 199.059 305.280,199.417 303.480,199.592 302.600 C 201.019 295.415,201.635 292.348,201.964 290.800 C 202.855 286.611,202.922 285.612,202.267 286.267 " stroke="none" fill="#f19f2c" fill-rule="evenodd"></path></g></svg>